<?xml version="1.0" standalone="no"?>
<!DOCTYPE svg PUBLIC "-//W3C//DTD SVG 20010904//EN"
 "http://www.w3.org/TR/2001/REC-SVG-20010904/DTD/svg10.dtd">
<svg version="1.0" xmlns="http://www.w3.org/2000/svg"
 width="512.000000pt" height="512.000000pt" viewBox="0 0 512.000000 512.000000"
 preserveAspectRatio="xMidYMid meet">
<metadata>
Created by potrace 1.14, written by Peter Selinger 2001-2017
</metadata>
<g transform="translate(0.000000,512.000000) scale(0.100000,-0.100000)"
fill="#000000" stroke="none">
<path d="M2795 4483 c-88 -21 -172 -91 -217 -182 l-22 -46 -1 -660 c0 -626 1
-663 19 -710 25 -64 59 -109 110 -144 62 -43 111 -55 231 -57 61 -2 116 -3
123 -3 9 -1 12 -46 12 -190 0 -174 2 -190 20 -214 25 -31 70 -43 102 -26 13 7
118 107 234 222 l211 210 554 1 c541 2 555 2 600 23 63 28 125 87 157 147 l27
51 0 680 0 680 -25 49 c-33 65 -83 114 -150 145 l-55 26 -955 1 c-525 1 -964
-1 -975 -3z"/>
<path d="M1525 4094 c-221 -45 -347 -111 -482 -251 -136 -141 -214 -334 -216
-532 -1 -117 7 -174 39 -269 90 -268 290 -457 564 -532 110 -30 280 -32 385
-5 288 73 501 274 590 555 35 108 43 286 18 395 -66 298 -285 532 -575 616
-69 20 -268 34 -323 23z m240 -184 c280 -58 493 -313 498 -597 3 -178 -50
-323 -165 -449 -140 -152 -353 -229 -560 -200 -227 32 -430 204 -508 431 -10
30 -17 55 -15 55 3 0 0 12 -6 27 -15 40 -12 181 6 258 28 121 78 209 169 300
107 106 225 166 371 188 42 6 152 -1 210 -13z"/>
<path d="M1588 3793 c-28 -17 -38 -39 -38 -84 0 -21 -8 -30 -41 -44 -46 -21
-103 -74 -124 -116 -21 -40 -28 -113 -14 -159 16 -51 70 -115 121 -141 21 -11
81 -29 131 -39 72 -16 97 -25 115 -45 12 -15 22 -32 22 -40 0 -18 -39 -55 -59
-56 -116 -10 -163 10 -199 84 -39 84 -124 95 -159 21 -14 -29 -15 -39 -4 -76
24 -79 88 -150 164 -179 38 -15 43 -20 48 -58 7 -51 33 -80 78 -85 46 -5 92
35 94 83 2 29 7 36 32 44 50 16 107 60 140 105 27 40 30 51 30 120 0 72 -2 80
-34 124 -55 77 -115 110 -221 124 -65 8 -126 38 -133 63 -3 14 3 31 18 49 20
23 31 27 79 26 61 0 94 -21 123 -79 36 -71 103 -87 147 -34 33 39 33 72 -3
135 -34 58 -88 109 -143 134 -22 10 -39 20 -39 24 5 46 -2 70 -25 91 -31 29
-68 31 -106 8z"/>
<path d="M850 2444 c-253 -53 -457 -240 -584 -537 -72 -169 -97 -282 -101
-472 -10 -391 156 -670 458 -772 l82 -28 915 0 c503 0 929 3 945 7 17 4 43 10
59 14 64 14 188 87 250 148 114 110 178 235 211 411 17 88 22 273 10 337 -4
18 -8 44 -9 58 -12 96 -65 259 -117 362 -158 314 -414 491 -697 483 -69 -1
-69 -2 -158 -68 -173 -130 -311 -179 -495 -176 -173 2 -305 52 -463 171 -43
33 -92 64 -109 69 -42 12 -118 9 -197 -7z"/>
</g>
</svg>
