<?xml version="1.0" encoding="utf-8"?>
<!-- Generator: Adobe Illustrator 25.4.1, SVG Export Plug-In . SVG Version: 6.00 Build 0)  -->
<svg version="1.1" id="Layer_1" xmlns="http://www.w3.org/2000/svg" xmlns:xlink="http://www.w3.org/1999/xlink" x="0px" y="0px"
	 viewBox="0 0 305.5 135.4" style="enable-background:new 0 0 305.5 135.4;" xml:space="preserve">
<style type="text/css">
	.st0{fill:#231E1F;}
	.st1{fill:#241F1F;}
	.st2{fill:#242021;}
	.st3{fill:#241F20;}
	.st4{fill:#241E20;}
	.st5{fill:#252021;}
	.st6{fill:#262122;}
	.st7{fill:#FE0000;}
	.st8{fill:#FCFCFC;}
	.st9{fill:#FFFFFF;}
	.st10{fill:#272020;}
	.st11{fill:#DFDFE0;}
</style>
<g>
	<path class="st0" d="M94.2,84.1c2.4,3.2,1.2,4-2.3,4c-6,0-12.1,0.5-18.1,0.7C66.4,89,63.2,86.9,60.1,80c-0.1-0.2-0.1-0.4-0.2-0.5
		c-4.6-4.4-10.1-0.5-15-1.6c-2.2-0.5-3.1,0.9-3.7,2.9c-3,9.8-3.1,9.7-13.6,10c-3.5,0.1-7.3-0.6-10.5,0.5c-4.7,1.6-7-3.2-10.9-3
		c-0.9,0.1-0.5-1.7-0.2-2.6C11.9,63.3,18,41,24,18.6c0.5-1.9,1.5-2.7,3.5-2.7c11.9-0.4,23.8-1.2,35.7-1c3.2,0.1,7.2,1.8,8.6,6.1
		c4,11.6,8.3,23.2,12.5,34.8c1.4-0.2,1.2-1.1,1.2-1.8c0.8-20.6,18.5-39.7,48.1-32.8c5.3,1.2,10.2,3.2,14.6,6.4
		c2.5,1.8,3.6,1.1,3.9-1.9c0.4-4.7,1.2-9.3,1.4-13.9c0.2-3.4,1.6-4.1,4.8-3.6c4.5,0.8,9,1.5,13.5,1.6c8.9,0.1,15.3,3.7,19.2,11.8
		c0.6,1.2,1.4,2.2,2.9,4.4c2.6-3,5.2-5.6,7.4-8.5c2.6-3.4,5.7-4,9.7-3.3c4.9,0.9,10,2,15,1.6c4.7-0.3,6.9,3.7,10.7,4.5
		c1.3,0.3,0.5,2.8,0.3,4.2c-1.8,15.8-3.6,31.5-5.4,47.3c-0.6,5.3-1.3,10.6-1.7,15.9c-0.2,2.7-1.1,3.7-4.1,3.3
		c-6.5-1-13-2.2-19.5-2.2c-4.1,0-5.6-4.1-9.4-4.3c-1.1-0.1-0.5-2-0.4-3.1c0.8-7.3,1.6-14.5,2.6-22.7c-2.6,2.4-4.5,4.1-6.5,5.9
		c-2.6-3.8-7.9-4.7-9.8-9.6c-1,8.4-2.5,16.9-2.9,25.3c-0.3,4.8-2.1,5.4-6.2,4.8c-7.4-1.1-15-1.8-22.4-2.7c-0.2,0.4-0.4,0.7-0.3,0.9
		c2.5,6.1,2.5,6.2-3.5,8.8c-17.6,7.7-34.2,6.4-49.4-6.1c-0.8-0.6-1.6-1.2-2.4-1.7C95.3,83.8,94.9,84,94.2,84.1z"/>
	<path class="st1" d="M285.5,43.6c-1.7-0.1-4.7-0.4-7.7-0.6c-2-0.2-3.9-0.6-3.9,2.7c0,2.7,0.7,3.6,3.3,3.5c4.6-0.3,8.6,1.6,12.6,3.5
		c1.5,0.7,1.1,1.8,1,2.9c-0.2,3.8-0.7,7.7-0.6,11.5c0.1,3.4-1.6,3.8-4.4,3.4c-3.3-0.4-6.7-0.5-10-0.8c-2.3-0.2-3.7-0.1-3.7,2.9
		c-0.1,3,1.3,3.2,3.6,3.3c3.7,0.1,7.5,1.1,11,0.6c4.1-0.6,5.7,3.8,9.5,3.6c1-0.1,0.1,16.8-1.1,17.3c-0.8,0.4-2,0.3-2.9,0.3
		c-15.6-1-31.1-2-46.7-3.1c-5.5-0.4-8.3-4.1-7.9-9.8c1.4-20,2.7-40,3.8-60c0.2-3.8,1.2-4.9,5.3-4.6c13.2,1.1,26.4,2.1,39.7,2.4
		c4.9,0.1,8.8,2.2,13,3.9c1.4,0.6,0.5,17.4-0.9,17.5C294.5,44.2,290.7,43.8,285.5,43.6z"/>
	<path class="st2" d="M280.9,121.6c-0.7,4.8-5.1,7-9.1,5.3c-1.6-0.7-1.1-1.9-1.1-3c-0.1-4.7-0.1-9.4,0-14c0-1.5-1-3.9,1.5-4.1
		c2.1-0.2,4.7-1.2,6.5,1.3c1.1,1.4,1.6,3.3,3.8,4.4c-0.3-3.9,0.3-6.2,5.1-6c4.1,0.2,5.1,1.4,4.8,5.2c-0.3,4,0,8-0.1,12
		c-0.1,1.5,1.1,3.9-1.2,4.2c-2.3,0.3-5.1,1.2-7.1-1C282.9,124.7,282.1,123.3,280.9,121.6z"/>
	<path class="st3" d="M89.5,126.4c-7.4,3.1-10.6-1.4-13.6-6.8c-0.1,0.6-0.3,1.3-0.3,1.9c-0.2,5.1-3,6.9-8.2,5.5
		c-1.7-0.5-1.4-1.5-1.4-2.6c0-5.3,0-10.7,0-16c0-1.8,0.4-2.8,2.5-2.7c4.4,0.1,8.7-0.2,13.1,0.2c5.5,0.4,7.9,4.5,5.4,9.5
		c-0.9,1.7-0.5,2.6,0.3,4C88.6,121.4,89.3,123.7,89.5,126.4z"/>
	<path class="st3" d="M171.4,126.3c-7.4,3.5-10.5-1-12.3-6.8c-1.8,0.4-1.6,1.1-1.6,1.7c-0.2,5.7-2.2,7-7.9,5.8
		c-2-0.4-1.8-1.6-1.8-2.9c0-5.2,0.1-10.3,0-15.5c0-2,0.5-3.1,2.8-3c4.2,0.1,8.4-0.1,12.5,0.2c5.7,0.4,8.1,4.3,5.8,9.3
		c-0.8,1.6-0.8,2.6,0.1,4C170.4,121.4,171.4,123.8,171.4,126.3z"/>
	<path class="st3" d="M202.6,126.9c-4.2-0.6-8.4,1.9-11.4-3c-0.8-1.3-5.1-1.4-5.9,0.1c-2.8,5.1-7,1.9-11.2,3
		c2.4-7,4.6-13.4,6.8-19.8c0.5-1.3,1.5-1.5,2.7-1.7c10.4-1.3,11.4-0.7,14.9,9.2C199.8,118.8,201.2,122.7,202.6,126.9z"/>
	<path class="st3" d="M253.9,127.1c-6.7,0-11.1-4.4-11-10.8c0-6.2,5-11.2,11.2-11.1c6.1,0.1,11.1,5.2,11.1,11.2
		C265.1,122.6,260.4,127.2,253.9,127.1z"/>
	<path class="st4" d="M130.8,127.1c-6.6-0.1-10.9-4.5-10.8-11c0.1-6.2,5.1-11.1,11.2-11c6.1,0.2,11.1,5.3,11,11.3
		C142.1,122.8,137.4,127.2,130.8,127.1z"/>
	<path class="st3" d="M49.1,127.1c-6.5,0.1-11.1-4.4-11.2-10.8c0-6,5.1-11.2,11.1-11.2c6.2,0,11.1,4.9,11.1,11.1
		C60.2,122.8,55.8,127.1,49.1,127.1z"/>
	<path class="st5" d="M104.2,119.1c-0.1,0.8-0.2,1.4-0.2,2.1c-0.1,5.4-3.2,7.5-8.4,5.8c-1.6-0.5-1.4-1.6-1.4-2.7
		c0-5.2,0.1-10.3,0-15.5c-0.1-2.3,0.6-3.3,3.1-3.2c3.5,0.2,7,0,10.5,0.1c3.4,0,6.2,1.1,7.7,4.5c1.2,2.7,0.6,5.3-1.2,7.4
		c-2.4,2.8-5.4,3-8.6,1.7C105.3,119.2,104.8,119.2,104.2,119.1z"/>
	<path class="st3" d="M25.9,127.1c-6.5,0-10.3-2.1-12-6.6c-1.7-4.4-0.3-9.7,3.5-12.7c3.6-2.9,10.7-3.4,14.8-1.2
		c1,0.6,1.9,1.1,1.1,2.2c-1.4,2.1-1.4,5.3-4.5,6c-0.8,0.2-1.7-0.2-2.5-0.1c-1.1,0.1-2.7-0.5-2.8,1.2c-0.1,1.8,1.5,1.8,2.9,2
		c1.6,0.3,3.7-1.9,4.6,1.1c0.7,2.2,3.4,4.3,2.2,6.3C31.8,127.7,28.4,126.9,25.9,127.1z"/>
	<path class="st5" d="M213.1,126.8c-4.9,1.4-5.3-1.2-5.2-5c0.1-2.8,1.9-6.5-3.7-7.2c-2-0.3-0.8-4.8-0.8-7.3c0-2.3,2.2-1.5,3.5-1.5
		c3.5-0.1,7-0.2,10.5,0c1.8,0.1,5.2-1.6,5,1.9c-0.2,2.5,3.2,7.2-3.1,7.5c-1.4,0.1-1.5,1.1-1.5,2.1c0,1.7-0.2,3.3,0,5
		C218.3,126,217.3,128.2,213.1,126.8z"/>
	<path class="st6" d="M237.1,116.4c0,1.8-0.2,3.7,0,5.5c0.6,4-0.6,5.3-5,5.3c-4.1-0.1-5.1-1.3-4.8-5.1c0.3-4.1,0.4-8.4,0-12.5
		c-0.5-4.8,2.7-3.9,5.4-4c2.7-0.1,5-0.2,4.4,3.8C236.8,111.7,237.1,114.1,237.1,116.4z"/>
	<path class="st7" d="M202.6,42.6c-3.7,3.7-7.6,7.3-11,11.2c-2.4,2.7-3.7,2.5-5.5-0.6c-2.6-4.5-5.6-8.8-9.3-14.5
		c-1.2,9.6-2.2,17.8-3.2,25.9c-0.4,3.6-1,7.3-1.1,10.9c-0.1,2.9-1.6,3.3-3.9,3.1c-5.7-0.6-11.3-1.3-17-1.9c-3.3-0.3-2.3-2.8-2.1-4.5
		c1.4-12.8,2.9-25.5,4.3-38.2c0.7-6.3,1.5-12.6,2-18.9c0.3-3.3,1.4-4.7,5-4.1c5.4,0.9,11,1.4,16.5,1.9c2.4,0.2,3.5,1.6,4.6,3.3
		c2.5,4.1,5.1,8.2,7.6,12.4c1.2,2,2.3,2.8,4,0.5c0.7-0.9,1.8-1.6,2.4-2.5c7.8-13.5,20-9.1,31.5-7.7c2.6,0.3,1.9,2.2,1.8,3.8
		c-1.6,14.1-3.2,28.1-4.8,42.2c-0.6,5.3-1.3,10.6-1.8,15.9c-0.3,2.7-0.8,4.2-4.3,3.5c-4.6-0.9-9.3-1.3-14-1.4c-4.4-0.1-5.3-2-4.8-6
		c1.4-11.2,2.6-22.4,3.8-33.6C203.2,43,202.9,42.8,202.6,42.6z"/>
	<path class="st7" d="M52.3,18.7c11.5-1.2,11.4-1.2,15.2,9.3c6.1,16.9,12.1,33.9,18.4,50.8c1.2,3.2,0.8,4.2-2.7,4
		c-2.8-0.2-5.7,0.1-8.5,0.2c-9.8,0.3-9.9,0.3-13.6-8.6c-0.9-2.1-2-2.7-4.1-2.6C51,71.9,45,72.2,39,72.1c-3.2-0.1-4.6,1.3-5.1,4.1
		c-0.1,0.8-0.4,1.6-0.5,2.5c-0.5,4.8-2.8,6.8-7.9,6.4c-4-0.3-8,0.2-12,0.5c-3.2,0.3-4.7-0.2-3.6-4.1c5.5-19.9,10.7-39.9,16-59.9
		c0.6-2.4,2-3.1,4.4-3.1C37.6,18.7,45,18.7,52.3,18.7z"/>
	<path class="st7" d="M122,22.5c6.3,0,12.3,1.4,18.1,3.5c2.5,0.9,3.3,2.2,1.9,4.9c-2.3,4.6-4.4,9.4-6.2,14.2
		c-1.1,2.8-2.4,3.8-5.6,3.2c-4.6-0.9-9.3-1-13.8,1.2c-3,1.4-4.3,3.7-4.3,6.7c0,2.9,1.4,5,4.1,6.3c4.8,2.4,9.8,2.1,14.7,0.9
		c2.7-0.7,4.1,0,5.1,2.4c2.5,5.5,5.1,10.9,7.7,16.3c0.7,1.5,1,2.7-0.9,3.7c-16.4,8.1-41.5,9-51.4-13.3C81.2,49,94.9,22.1,122,22.5z"
		/>
	<path class="st8" d="M150.9,35.3c-1.4,12.3-2.8,24.7-4.4,38.3c-1.5-3-2.9-4.7-3.1-6.5c-0.4-4.9-6.3-4.2-7.7-7.9
		c0-0.1-1.5,0.3-2.2,0.6c-2.8,1.2-5.8,1.6-8.8,1.7c-1.9,0.1-4.4,0.6-4.7-2.4c-0.3-2.5,1.2-4.1,3.5-4.9c4.3-1.4,8.8-1.4,12.9-0.2
		c3.9,1.2,4.9-0.3,6.1-3.3c2.2-5.3,4.7-10.5,7-15.8C149.9,35.1,150.4,35.2,150.9,35.3z"/>
	<path class="st7" d="M268.8,90.8c-8.4-0.6-16.7-1.2-25.1-1.7c-2.9-0.1-3.7-1.2-3.5-4c1.4-19.6,2.7-39.3,3.9-58.9
		c0.2-2.8,1.4-3.3,3.8-3.2c13.7,0.9,27.4,1.9,41.1,2.7c2.6,0.1,3.8,0.9,3.3,3.5c-0.1,0.8-0.1,1.7-0.1,2.5c-0.4,7.1-0.4,7-7.2,6.4
		c-5-0.5-10-0.7-15-1.2c-2.5-0.2-3.5,0.5-3.7,3.2c-1,11.1-1.1,11.1,9.9,11.8c2.2,0.1,5.8-0.8,6.4,1.5c0.8,3.2,0,6.9-0.5,10.3
		c-0.2,1.4-2,0.9-3.1,0.9c-3.5-0.2-7-0.4-10.5-0.7c-2.4-0.2-3.6,0.2-3.8,3c-1.2,13.3-1.8,11.1,9.7,11.7c3.7,0.2,7.3,0.7,11,0.8
		c2.8,0,3.8,0.8,3.5,3.8c-0.8,9-0.7,9-9.6,8.3C275.8,91.2,272.3,91,268.8,90.8C268.8,90.8,268.8,90.8,268.8,90.8z"/>
	<path class="st9" d="M160.3,111.9c0.1,1.1-0.5,1.9-1.6,2.1c-1.1,0.2-1.4-0.6-1.3-1.5c0.1-0.9-0.4-2.1,0.9-2.4
		C159.6,110,159.9,111,160.3,111.9z"/>
	<path class="st9" d="M188.2,113.7c1.2,1.9,2.5,3.2,1,4.8c-0.3,0.3-1.5,0.1-1.8-0.3C186.2,116.8,187.7,115.6,188.2,113.7z"/>
	<path class="st9" d="M253.9,118c-1.6-0.3-2.1-1.3-2-2.5c0.1-1.1,0.8-1.8,2-1.7c1.4,0,2.1,0.8,2.1,2.2
		C255.9,117.3,255.1,117.9,253.9,118z"/>
	<path class="st9" d="M133.2,115.8c-0.1,1.2-0.8,2.1-2.1,2.1c-1.5,0-2-1-2-2.3c0-1.1,0.6-1.9,1.8-2
		C132.2,113.7,133,114.4,133.2,115.8z"/>
	<path class="st9" d="M49.1,118c-1.4-0.2-2.1-1-2-2.3c0.1-1.4,1-2.1,2.4-1.9c1.2,0.1,1.7,1,1.7,2C51.1,117.1,50.5,117.9,49.1,118z"
		/>
	<path class="st9" d="M105,110.4c1.2,0.2,1.8,0.8,2,1.9c0.2,1.3-0.4,2.3-1.6,2.6c-1.5,0.4-1.5-0.8-1.5-1.8
		C104,112.1,103.4,110.8,105,110.4z"/>
	<path class="st10" d="M46.3,32.1c3,8.7,6.1,17.5,9.1,26.2c0.5,1.3,0.2,2.3-1.6,2.1c-0.3,0-0.7,0-1,0c-14.9,1.5-14.9,1.6-11.3-12.6
		c1.3-5.2,2.5-10.3,3.8-15.5C45.6,32.2,46,32.2,46.3,32.1z"/>
	<path class="st11" d="M49.3,51c1.2,2.2,3.3,4,1.9,6.5c-0.3,0.5-2.3,0.6-2.7,0.2C46.2,55.4,49.5,53.4,49.3,51z"/>
</g>
</svg>
