<?xml version="1.0" encoding="utf-8"?>
<!-- Generator: Adobe Illustrator 24.3.0, SVG Export Plug-In . SVG Version: 6.00 Build 0)  -->
<svg version="1.0" id="Capa_1" xmlns="http://www.w3.org/2000/svg" xmlns:xlink="http://www.w3.org/1999/xlink" x="0px" y="0px"
	 viewBox="0 0 1097.78 825.78" style="enable-background:new 0 0 1097.78 825.78;" xml:space="preserve">
<style type="text/css">
	.st0{fill-rule:evenodd;clip-rule:evenodd;fill:#FED41D;stroke:#FED41D;stroke-width:0.5669;stroke-miterlimit:22.9256;}
	.st1{fill-rule:evenodd;clip-rule:evenodd;fill:#EB5639;}
	.st2{fill-rule:evenodd;clip-rule:evenodd;fill:#282618;}
	.st3{fill-rule:evenodd;clip-rule:evenodd;fill:#F0B20D;}
	.st4{fill-rule:evenodd;clip-rule:evenodd;fill:#FDFDFD;}
	.st5{fill-rule:evenodd;clip-rule:evenodd;fill:#F4EA8C;}
	.st6{fill-rule:evenodd;clip-rule:evenodd;fill:#F6D939;}
	.st7{fill-rule:evenodd;clip-rule:evenodd;fill:#E85737;}
	.st8{fill-rule:evenodd;clip-rule:evenodd;fill:#130C01;}
	.st9{fill-rule:evenodd;clip-rule:evenodd;fill:#120F12;}
	.st10{fill-rule:evenodd;clip-rule:evenodd;fill:#EAB329;}
	.st11{fill-rule:evenodd;clip-rule:evenodd;fill:#EB5639;stroke:#EB5639;stroke-width:0.5669;stroke-miterlimit:22.9256;}
	.st12{fill-rule:evenodd;clip-rule:evenodd;fill:#F7D735;}
	.st13{fill-rule:evenodd;clip-rule:evenodd;fill:#F4AD9B;}
	.st14{fill-rule:evenodd;clip-rule:evenodd;fill:#F4D434;}
	.st15{fill-rule:evenodd;clip-rule:evenodd;fill:#A09FA3;}
	.st16{fill-rule:evenodd;clip-rule:evenodd;fill:#EAB629;}
	.st17{fill-rule:evenodd;clip-rule:evenodd;fill:#371409;}
	.st18{fill-rule:evenodd;clip-rule:evenodd;fill:#E9AA9B;}
	.st19{fill-rule:evenodd;clip-rule:evenodd;fill:#FBFCFB;}
	.st20{fill-rule:evenodd;clip-rule:evenodd;fill:#F6EC94;}
	.st21{fill-rule:evenodd;clip-rule:evenodd;fill:#F6F6F6;}
	.st22{fill-rule:evenodd;clip-rule:evenodd;fill:#F6F7F7;}
	.st23{fill-rule:evenodd;clip-rule:evenodd;fill:#F4CA31;}
	.st24{fill-rule:evenodd;clip-rule:evenodd;fill:#EBEFF2;}
	.st25{fill-rule:evenodd;clip-rule:evenodd;fill:#FBEB84;}
	.st26{fill-rule:evenodd;clip-rule:evenodd;fill:#D9563B;}
	.st27{fill-rule:evenodd;clip-rule:evenodd;fill:#F8A38C;}
	.st28{fill-rule:evenodd;clip-rule:evenodd;fill:#F8AA96;}
	.st29{fill-rule:evenodd;clip-rule:evenodd;fill:#03050B;}
	.st30{fill-rule:evenodd;clip-rule:evenodd;fill:#1B1401;}
</style>
<g>
	<path class="st0" d="M391.64,259.47l6.02,1l0.21-6.15c0.46-1.9,0.02-0.79,0.81-1.9l0.03-8.79c-6.53-2.19-13.38-6.71-14.15-14.35
		c3.21,1.96,6.76,8.63,15.54,11.25c3.15-3.43,9.05-15.57,18.35-19.1c-1.94-6.72-7.44-10.68-7.12-19.27
		c2.25,1.17,8.34,13.02,10.01,16.13c7.67-0.56,6.22-3.68,24.75-4.04c-0.2-5.41-2.57-17.47,3.22-19.61
		c0.69,6.99-0.74,13.97,1.14,20.43c3.72,1.59,7.09,2.11,11.53,4.58c3.76,2.09,6.46,4.44,9.6,6.06c2.54-9.52,5.55-12.03,8.7-18.49
		c-3.09-4.47-9.12-9.28-9.97-16.95c4.31,0.5,8.72,11.33,12.56,14.07c3.78-2.78,6.16-5.76,11.38-8.77c5.36-3.1,13.22-4.63,13.6-6.5
		l0.35-2.19c0.01-2.31-3.41-10.97,0.28-15.17c1.54,1.95,2.7,14.21,3.77,17.19c20.44-1.27,23.64,4.43,32.38,5.77
		c7.01-10.3,5.32-13.38,8.22-16.52c1.14,1.57,0.95,3.86,0.65,5.61c-1.13,6.59-3.9,8.42-5.84,13.23c2.98,3.61,6.42,5.5,9.82,9.88
		c1.63,2.09,5.69,9.55,7.32,11.1c9.2-4.51,9.19-12,14.91-13.79c-2.18,9.85-8.69,13-13.64,18.41c-0.35,14.48,2.4,17.86-4.58,30.83
		c-13.42,24.95-42.42,34.99-70.71,18.54c-1.61,6.67-19.22,11.74-26.45,13.86c-22.89,6.7-14.65,18.5-14.08,23.04
		c17.65,2.61,25.87-5.54,36.15-8c-3.09,7.01-18.72,12.06-28.25,12.26c-12.75,0.27-18.81-6.85-21.93-17.3l-8.76-1.76
		c1.4,14.2,2.16,15.36-1.67,28.3c-1.91,6.46-6.89,18.48-4.29,25.67c-2.3-0.39-2.9-0.93-4.41-1.61c0.9,2.32,0.5,1.73,2.93,2.96
		c8.52,4.31,35.52,2.23,43.79,0.8c30.46-5.27,73.14-17.04,97.64-36.22c3.29-2.58,12.11-10.25,12.81-14.65
		c-1.58-0.75-4.75-1.57-6.06-3.33c6.59-4.34,17.36,7.32,13.23,13.13c-0.96-1.94-2.22-4.69-3.84-6.03c-2.01,1.75-2.33,1.75-2.94,4.13
		c-16.89,36.1-64.77,41.37-76.55,49.35l5.49,0.61l4.9-0.76c-0.21,0.73-4.96,7.62-0.72,11.98c0.1,0.11,9.97,5.44,16.92,11.87
		c3.03-2.59,4.8-6.04,10.5-7.08c7.62-1.38,9.03,1.44,14.22,2.79c5.37-6.13,11.39-7.04,20.5-4.15c7.11-6.92,7.16-7.43,19.9-7.38
		c1.89-4.98,5.67-6.36,11.94-8.45c0.19-4.62-5.15-22.86-2.75-50.46c0.18-2.05,0.84-6.36,0.57-8.67c-0.51-4.35-1.44-1.75-3.29-6
		c0.97-0.74-0.14-0.59,2.47-1.16c2.17-0.04,1.81-0.14,2.57-0.54l-1.38-15.44c0.6-4.45-0.09-1.99,1.93-3.33
		c1.41-2.33,2.86-4.13,3.93-6.14c-6.68,1.88-6.16,7.39-11.89,5.15c-3.66-7.78,8.43-14.01,13.51-10.97c0.72,3.69,0.89,1.67-0.62,5.12
		c5.28-1.7,5.58-0.62,9.86-0.85c2.26,1.13,1.88-1.36,1.98,1.26l0.31-1.14c-0.88-3.71-5.66-7.97-11.48-8.13
		c-6.79-0.19-9.91,4.11-14.94,5.87c1.21-5.83,2.89-4.23,6.41-7.28c4.56-5.09,6.81-11.63,5.09-20.26c-3-15.06,29.38-27.04,29.77-40.3
		c-2.51-2.48-8.31-4.98-11.68-6.92c-25.46-14.65-13.79-20.04-7.53-31.19c6.08-10.85,19.01-41.17,17.37-55.87l-4.46-0.56
		c-5.79-1.68-22.32,2.55-29.03,3.56c-10.8,1.63-20.82-0.32-25.85-6.44c-7.98-9.71-15.03-38.15-22.47-44.95
		c-0.95,3.64-27.38,21.55-32.07,24.87c-9.99,7.08-21.17,20.32-39.15,13.94c-6.9-2.45-14.66-5.27-20.6-8.38
		c-3.38-1.77-16.18-8.6-19.76-6.61c-3.76,2.08-6.97,14.32-8.83,19.38c-1.82,4.93-6.4,14.79-9.15,18.88
		c-4.95,7.36-5.92,9.42-16.93,12.06c-22.88,5.5-45.42,1.94-44.22,12.58c0.5,4.43,14.11,25.16,18.74,38.23
		c3.87,10.92,5.24,11.39-1.49,20.4c-3.79,5.07-8.61,10.53-13.09,15.09c-3.53,3.59-12.87,12.44-11.23,16.92
		c1.6,4.39,35.34,29,43.81,31.18L391.64,259.47z"/>
	<path class="st1" d="M409.35,582.14c7.81,2.52,20.05-1.4,26.29,3.52c2.97,9.72-3.25,20.79-2.29,31.07
		c4.57-0.02,13.4-2.08,18.01-3.13c2.87-0.65,6.3-1.35,9.3-2.11c4.79-1.22,4.99-1.68,8.22,1.04c0.69-9.38,14.27,13.66,13.91,21.42
		c6.05-3.83,16.79-19.27,25.23-19.87l4.01,6.79c-0.85-3.13-0.85-2.1-1.17-5.3c5.49,0.92,7.51,5.95,9.52,10.86
		c1.86,4.54,6.01,10.42,3.81,15.36c4.22-3.46,8.31-8.73,11.9-13.54c4.61-6.17,6.22-11.89,13.98-9.3c4.55-1.05,10.08,4.45,13.74,7.37
		c2.21,1.77,4.04,3.43,5.99,5.12c2.98,2.58,5.18,2.89,5,6.37c3.48-3.92,10.21-23.19,17.71-21.4c1.89,0.45,11.24,7.84,12.01,8.48
		c3.16,2.65,7.61,7.25,10.89,8.44l3.33,0.72c1.38-9.56,3-5.27,2.35-21.52c-0.19-4.85-1.99-17.11-3.55-20.45
		c-2.02-2.25-4.75,0.36-13.17-6.28c-3.91-3.08-29.4-5.42-35.3-26.07c-1.19-1.78-9-7.4-11.49-9.95
		c-25.67-26.25-41.08-41.93-59.94-75.72c-2.4-4.3-5.72-11.99-7.84-15.2c0.89,7.5-8.41,32.07-11.45,38.91l-18.19,33.19
		c-10.22,15.05-9.33,14.48-22.02,28.37c-4.15,4.55-8.09,8.74-12.49,13.05C422.26,575.71,416.48,582.52,409.35,582.14z"/>
	<path class="st0" d="M547.94,535.61c2.76,4.12,24.46,25.34,31.05,25.56l4.01-0.43c3.87-10.12-0.45-18.44,13.95-21.79
		c6.17-1.43,11.33,0.27,17.38-0.3c3.85-0.36,9.84-1.98,9.2-6.66c-0.03-0.22-0.28-1.11-0.33-1.39c-0.9-1.19-1.81-2.35-4.63-2.47
		c-5.38-0.22-5.82,5.35-16.22,6.89c-14.68,2.18-19.69-5.95-16.69-13.27c4.1-9.99,17.23-4.05,21.95-8.9
		c3.01-3.1,1.74-8.62-2.16-10.26c-4.67-1.96-9.59,0.43-14.23,0.81c-15.36,1.26-22.75-21.35-27.89-33.63
		c-3.26-7.78-5.99-14.18-9.2-21.61c-1.52-3.52-8.67-17.98-8.9-21.44c4.54,1.54,0.9,2.61,8.4,3.04c10.89,0.63,22.22-0.09,32.61-3.25
		c6.49-1.97,11.85-4.81,16.09-7.67c7.45-5.02,7.4-5.6,7.33-16.66c0.24,0.19,0.64,0.1,0.77,0.52l1.91,1.65l0.22-2.3
		c3.86,1.25,4,6.07,4.16,10.8c0.41,11.64,3.21,17.79,3.43,41.83c0.08,8.5-1.12,20.31-2.69,28.03c-0.43,2.12-4.69,23.98-4.68,24.02
		c0.27,9.27-3.01,10.65-11.59,11.76c-5.9,0.76-14.23,1.49-12.17,9.15c1.72,6.42,12.4,4.32,17,2.42c3.9-1.61,11.47-7.67,15.09-4.6
		l1.49-0.75c3.82-2.38,3.34-6.88,5.36-14.51c4.55-17.16,5.53-39.79,4.95-58.11c-0.43-13.43-7.39-62.81-14.36-69.51
		c-2.16,2.99-2.88,4.82-6.58,6.64c-4.78,2.35-7.37,0.5-12.19,1.36c-5.85,7.85-10.06,10.18-22.19,6.23
		c-9.42,9.09-10.85,10.13-26.86,5.41c-3.79,5.24-8.78,3.81-10.38,7.38l-0.28,4.86c-4.58-3.7-13.24-35.64-30.35-40.66
		c-4.24,2.02-12.37-0.28-19.6,10.56c-4.18,6.26-2.79,19.04-1.22,27.42c1.49,7.95,8.32,27.98,11.33,34.83
		c1.64,3.72,2.54,6.9,4.31,11.1l19.91,41.49c10.44,19.98,10.17,15.65,18.58,27.6C544.49,528.89,548.99,533.29,547.94,535.61z"/>
	<path class="st2" d="M516.63,709.56c3.52-3.65,18.92-3.43,25.71-2.59c26.19,3.24,43.55,35.16,36.77,48.76
		c-4.8,9.64-36.3,10.95-47.64,10.63c-7.94-0.22-17.92-2.16-24.96-4.12c-3.99-1.11-17.2-6.94-18.39-10.37
		c-6.68-5.36,2.94-21.76,6.52-26.83C498.86,719.06,506.93,710.76,516.63,709.56L516.63,709.56z M518.71,704.54
		c10.32-1.42,16.41-3.04,27.73-0.84c11.21,2.18,15.53,7.32,20.22,8.16c8.01-23.87,17.98-40.63,24.91-69.1
		c1.03-4.22,1.75-8.35,2.64-12.72c1.25-6.15,3.21-7.73-2.98-9.97c-8.01,4.66-11.8,23.57-19.63,26.71
		c-8.86-4.52-20.65-23.85-26.45-24.61l-9.02,12.08c-4.58,5.55-5.81,5.42-7.48,14.89l-2.31,7.66c-1.14,1.99-3.7,10.43-4.59,13.42
		c-3.15,10.58-6.49,16.41-10.03,25.71c-1.6,4.22-4.69,9.65-5.11,13.45l7.05-3.57L518.71,704.54L518.71,704.54z M355.87,603.33
		l14.46,15.14c3.07,2.6,6.25,3.01,8.05,7.27c8.89,21.02-10.07,7.33-16.3,0.08C357.09,620.01,352.19,612.48,355.87,603.33
		L355.87,603.33z M420.51,557.05c1.42-1.2,2.35-2.65,3.34-4.24c-2.35-6.28-14.06-14.67-23.11-11.31
		c-17.88,4.5-37.91,32.9-37.03,39.2c0.59,4.26,7.21,12.1,10.79,13.76l0.57-16.74c0.34-0.46,0.81-0.19,1.35-2.48
		c1.65,1.75,0.93,0.37,1.7,3.16l0.77,23.04c1.19,24.86,6.08,43.62,30.43,51.29c15.02,4.73,34.29,0.12,45.38-6.02
		c13.74-7.61,21.98-17.57,10.25-31.5c-5.88-0.12-17.22,3.64-26.44,4.52c-8.48,0.8-7.29-0.27-8.32-1.52
		c-4.08-4.82,4.89-22.31,2.34-30.37c-3.58-1.15-12.24-1.63-16.28-1.47c-5.72,0.23-8.6,4.84-10.26,7.78
		c-3.22,0.97-0.29,0.05-3.28,2.16c-1.63,1.15-2.35,1.54-4.86,2.18c1.29-4.22,2.26-3.93,5.22-6.85c1.49-1.47,3.6-3.91,4.7-5.52
		c-4.48-2.79-9.66-0.05-11.05-6.83c1.5-3.18,8.8-7.58,12.26-10.76C413.37,564.49,417.33,561.47,420.51,557.05L420.51,557.05z
		 M360.8,579.02c2.39-8.54,10.84-20.32,16-25.59c16.48-16.84,21.77-11.57,25.88-16.06c-9.19-4.46-22.33,7.07-26.75,10.87
		c-6.11,5.26-12.1,12.99-17.42,21.88c-9.1,15.22-19.47,39.78-10.83,61.24c4.43,12.21,17.56,11.26,24.74,7.66
		c-11.53-9.5-21.85-14.55-20.5-32.99l2.13-7.95l3.52-0.15c3.55,7.09,12.13,16.53,18.62,20.41c1.07-2.46-0.45-8.73-0.66-12.58
		c-0.31-5.65-0.03-6.32-3.73-9.26C366.73,592.47,360.44,587.44,360.8,579.02L360.8,579.02z M527.29,383.02
		c8.51-15.64,29.52-1.98,21.06,11.74c-2.49,4.05-5.67,5.13-11.94,5.43C534.34,394.08,530.18,389.83,527.29,383.02L527.29,383.02z
		 M550.96,379.61c2.18,4.92,2.08,8.81,2.42,14.92c8.54,7.29,21.18,0.55,19.73-11.42C571.76,371.89,556.32,369.43,550.96,379.61
		L550.96,379.61z M577.18,388.51c-0.94-3.22-0.34-5.27-1.59-8.61c-1.34-3.6-3.81-4.08-1.45-7.89c2.41-3.9,10.88-7.07,16.18-2.58
		C600.58,378.11,591.72,395.85,577.18,388.51L577.18,388.51z M592.64,364.59c0.72,4.51,1.88,3.86,3.84,7.25
		c1.73,2.99,1.43,6.77,2.23,8.05c3.2,5.11,11.74-1.78,13.06-4.46c2.68-5.43-1.14-12.15-4.58-14.32
		C600.3,356.75,596.03,361.88,592.64,364.59L592.64,364.59z M642.6,551.97l1.75-2c0.51,2.01,1.67,4.94,1.22,6.57l-1.96,2.07
		l1.61-0.17c3.15,8.49,8.07,18.01,11.74,25.93c2.95,6.34,12.41,22.88,13.18,26.11c-16.76,0.39-32.66-9.31-36.25-8.04
		c-8.55,6.22-3.84,27.07-10.24,36.51c-3.75-0.21-6.56-2.74-8.26-5.63c-3.28-1.19-7.73-5.79-10.89-8.44
		c-0.76-0.64-10.12-8.02-12.01-8.48c-7.5-1.8-14.23,17.47-17.71,21.4l-2.26,4.68c-3.83-1.24-8.52-7.79-11.92-11.23
		c-2.79-2.83-9.56-9.97-10.56-12.3c-7.75-2.59-9.37,3.13-13.98,9.3c-3.59,4.81-7.67,10.08-11.9,13.54l-4.49,0.72
		c-2.69-5.52-6.34-15.42-7.67-21.64l-4.01-6.79c-8.44,0.6-19.18,16.04-25.23,19.87c-1.67,2.1-1.12,2.01-4.18,2.81
		c-3.22-2.56-3.61-7.85-5.08-12.43c-1.18-3.68-4.05-9-4.65-11.8c-3.23-2.72-3.43-2.26-8.22-1.04c-2.99,0.76-6.42,1.47-9.3,2.11
		c-4.62,1.04-13.44,3.1-18.01,3.13c-0.96-10.29,5.26-21.35,2.29-31.07c-6.24-4.93-18.47-1-26.29-3.52l-7.82-1.62l26.93-26.62
		c6.88-7.39,17.62-20.61,23.67-30.01c13.08-20.3,24.99-40.78,30-63.75c2.23-10.21,0.46-9.15,4.99-9.56
		c-1.73-5.78-3.81-0.6-3.03-10.78c1.68,4.76-1.08,1.69,2.78,3.8c-3.85-14.96-13.07-30.19-11.36-48.69
		c0.84-9.09,4.41-15.15,10.44-19.05c4.73-3.06,17.91-6.17,23.74-2.03c17.11,5.02,25.77,36.96,30.35,40.66l0.28-4.86
		c-0.13-0.19-0.3-0.44-0.37-0.58c-0.08-0.14-0.27-0.41-0.36-0.59l-1.32-4.1c2.56-1.33,5.05-1.54,7.37-2.89l5.47-4.09
		c11.32,6.46,19.03,3.35,24.75-5.44c10.43,3.46,18.12,1.24,21.12-7.38c9.15,0.86,16.98-2.62,18.89-10.29
		c2.66-10.66-4.89-13.47-10.21-17.6l-1.17-9.85c9.43-2.2,18.52,3.02,23.78,7.67c7.38,6.51,8.16,10.25,11.66,20.9
		c5.63,17.11,8.23,35.5,9.62,55.34c1.48,20.99,1.16,42.9,0.01,63.22C648.08,520.3,646.87,527.22,642.6,551.97L642.6,551.97z
		 M398.39,263.48c-0.97-2.08-0.44-1.04-0.12-2.19c0.88-3.21,1.75-3.52,0.41-8.86c-0.79,1.11-0.35,0-0.81,1.9l-0.21,6.15l-6.02-1
		c-12.67-2.65-23.72-8.22-33.21-13.99c-6.03-3.67-22.14-14.11-24.48-22.02c1.81-3.17,17.7-15.68,20.46-18.38
		c23.82-23.29,14.37-22.87,2.53-48.47c-4.06-8.77-9.02-17.97-8.23-29.57c1.95-4.07,26.5-6.01,31.87-6.51
		c11.28-1.05,24.27-1.67,29.76-8.85c6.25-8.18,7.37-16.88,10.94-27.55c1.5-4.5,2.8-9.59,4.61-14.07c2.25-5.57,4.09-6.91,7.01-11.62
		c18.85-0.17,45.63,32.39,63.82,22.72c8.36-4.44,18.77-13.34,26.11-19.12c4.28-3.38,7.76-6.12,12.77-9.37
		c4.26-2.76,11.4-8.73,14.52-2.31c7.44,6.81,14.48,35.25,22.47,44.95c5.03,6.12,15.05,8.07,25.85,6.44
		c6.71-1.01,23.24-5.24,29.03-3.56l1.45-0.68c0.11-0.04-0.07-0.68,4.99-0.65c7.59,0.05,8.18,0.77,8.66,7.96
		c2.58,39.05-22.62,52.72,17.28,66.25c7.43,2.52,19.42,5.86,24.41,9.6c0.34,12.9-12.92,33.37-20.55,41.96
		c-3.1,3.49-4.56,5.38-1.93,10.41c5.15,9.85,15.54,23.14,15.67,30.68c-5.19,3.14-8.62,6.32-14.46,9.32
		c-5.17,2.67-11.12,4.82-16.62,7.35c-12.66,5.83-3.6,27.45-5.7,40.34c-8.1,4.76-30.38-0.79-38.35-3.3
		c0.05-6.29-0.82-15.67,1.69-20.62c0.91-0.88,24.53-1.87,22.11-25.52c-1.57-15.33-11.48-22-27.22-17.99
		c-3.52,3.05-5.21,1.45-6.41,7.28c5.03-1.76,8.15-6.05,14.94-5.87c5.83,0.16,10.6,4.42,11.48,8.13c1.69,1.46,0.59-0.24,1.98,2.65
		c0.06,0.13,0.78,2.38,0.82,2.55c1.46,5.82,0.59,12.21-2.36,16.83c-4.35,6.8-12.94,8.87-18.42,6.52c-2.84-1.22-1.18-0.58-2.22-1.69
		c-2.61,0.57-1.5,0.42-2.47,1.16c1.85,4.25,2.78,1.65,3.29,6c0.27,2.3-0.4,6.62-0.57,8.67c-2.4,27.6,2.94,45.85,2.75,50.46
		c-6.28,2.09-10.06,3.47-11.94,8.45c-12.74-0.05-12.78,0.46-19.9,7.38c-9.11-2.89-15.13-1.98-20.5,4.15
		c-5.19-1.35-6.6-4.17-14.22-2.79c-5.71,1.03-7.48,4.49-10.5,7.08c-6.95-6.43-16.82-11.76-16.92-11.87
		c-4.23-4.36,0.51-11.24,0.72-11.98l-4.9,0.76c-1.63,1.15-2.34,1.56-5.25,1.15c-4.86-0.7-6.29-4.54-5.97-9.43
		c0.84-0.6,35.23-12.21,45.41-16.85c30.9-14.07,29.81-20.64,36.88-24.82c0.6-2.38,0.92-2.38,2.94-4.13
		c1.62,1.34,2.88,4.09,3.84,6.03c4.13-5.82-6.64-17.48-13.23-13.13c1.31,1.77,4.48,2.58,6.06,3.33c-0.7,4.39-9.53,12.07-12.81,14.65
		c-24.5,19.18-67.18,30.95-97.64,36.22c-8.27,1.43-35.27,3.51-43.79-0.8c-2.43-1.23-2.03-0.63-2.93-2.96
		c-10.28-5.31,3.15-30,4.25-37.64l-1.03,0c0.07-1.73,0.48-4.43,0.39-6c-0.07-1.15-0.1-1.49-0.43-2.59c-0.8-2.65,0.67-0.77-1.33-2.5
		c-0.26,15.87-2.63,18.05-6.96,30.74c-14.77,43.31,69.69,19.85,76.25,20.29c2.11,3.13,1.14,6.2,4.47,9.14
		c4.04,3.58,8.13,1.38,10.04,3.6c1.61,1.45,1.67,5.82,0.04,7.34c-2.52,2.54-5.01-0.39-13.83,3.09
		c-14.54,5.73-17.25,19.47-15.54,35.89c0.52,4.99,5.37,21.99,7.26,26.88c12.19,31.51-46.15,115.26-53.25,116.19
		c-4.13-0.58-4.91-4.07-8.39-6.73c-9.88-7.55-22.11-13.21-33.98-5.57c-17.58,11.33-33.77,33.76-39.3,54.78
		c-3.67,13.97-8,39.79,7.36,48.41c3.86,2.17,8.31,2.5,13.72,1.84c5.4-0.66,8.02-2.85,12.28-3.71c6.75-9.27,8.58,10.58,29.78,15.2
		c40.44,8.82,59.9-19.02,62.19-20.23c4.37-2.32,2.46,3.13,6.86,3.97c7.34,1.41,19.59-20.97,28.85-20.78
		c3.98,3.54,4.98,10.17,7,15.63c4.54,12.27,0.9,7.37,10.9,12.93c1.1,8.75-5.85,23.74-8.41,31.85
		c-3.33,10.54-11.45,33.96-19.47,41.03c-3.6,3.17-5.89,7.21-8.76,11.7c-2,3.14-4.49,11.9-4.34,16.22c0.22,6.16,4.76,8.7,9.12,11.29
		c14.36,8.55,52.19,11.87,69.32,6.45c12.76-4.04,22.24-1.87,20.95-18.15c-0.66-8.31-3.95-15.83-8.31-22.38l-3.35-4.59
		c-1.19-2.23,0.37,2.13-1-2.35c-4.29-1.38,3.23-15.53,5.74-21.31c7.81-17.96,17.64-44.85,21.01-64.54
		c1.17-6.84,1.98-7.99,14.24,3.24c3.88,3.56,7.66,8.08,14.85,7.33c6.65-10.69,3.7-28.75,8.93-36.12c2.43,0.04,14.73,4.43,18.47,5.44
		c6.26,1.7,15.36,5.26,21.22,0.84c0.24-5.99-4.88-9.55-7.28-14.77c-2.18-4.75-5.12-9.95-7.45-14.79
		c-17.99-37.26-13.54-24.57-11.41-50.65c1.16-14.21,5.28-37.25,3.64-50.81c-0.35-2.86,0.62-6.29,0.7-10.63
		c0.5-27.64-0.35-56.29-5.96-82.12c-2.76-12.73-6.05-23.25-12.54-32.03c-14.12-19.08-27.47-10.93-30.79-14.51
		c-1.88-1.76-2.81-17.24-0.99-19.32c1.57-1.47,5.35,0.67,8.07,1.39c8.54,2.26,29.03,4.27,32.8-2.48c4.04-9.13-7.4-29.56,3.9-37.75
		c5.53-4.01,19.04-7.42,29.68-15.53c9.61-7.32-0.46-16.51-8.2-29.81c-3.18-5.47-7.38-8.86-1.96-14.54
		c6.83-7.14,26.84-38.73,19.15-46.28c-3.25-3.18-26.19-10.39-32.98-13.22c-16.78-7.01-12.8-11.18-9.83-28.42
		c1.47-8.49,6.49-35.39-0.03-40.96c-7.12-4.71-44.13,3.63-54.73,3.91c-8.39,0.22-12.12-1.55-17.41-11.82
		c-15.12-29.33-13.59-55.4-41.23-34.43c-9.62,7.3-23.72,21.34-35.55,25.75c-19.7,7.34-53.1-29.99-63.25-22.17
		c-4.33,3.34-7.91,14.14-10.6,20.31c-8.33,19.12-5.67,35.42-22.17,38.34c-8.94,1.58-17.17,3.16-26.53,3.75
		c-5.4,0.34-22.46,1.24-25.13,6.07c-4.98,8.98,5.34,28.37,9.94,37.6c8.91,17.9,14.7,19.26,3.45,32.05
		c-20.61,23.45-34.08,23.33-26.08,34.14C345.54,244.27,377.25,261.11,398.39,263.48z"/>
	<path class="st3" d="M598.92,253.3c15.74-4.01,25.65,2.66,27.22,17.99c2.42,23.65-21.2,24.63-22.11,25.52
		c-2.52,4.95-1.65,14.33-1.69,20.62c7.97,2.51,30.25,8.07,38.35,3.3c2.1-12.9-6.96-34.51,5.7-40.34c5.5-2.53,11.45-4.69,16.62-7.35
		c5.84-3.01,9.27-6.18,14.46-9.32c-0.13-7.53-10.52-20.83-15.67-30.68c-2.63-5.03-1.17-6.92,1.93-10.41
		c7.63-8.59,20.89-29.06,20.55-41.96c-5-3.74-16.98-7.08-24.41-9.6c-39.91-13.52-14.7-27.19-17.28-66.25
		c-0.48-7.18-1.07-7.91-8.66-7.96c-5.05-0.03-4.88,0.61-4.99,0.65l-1.45,0.68l4.46,0.56c1.65,14.7-11.28,45.02-17.37,55.87
		c-6.25,11.15-17.92,16.54,7.53,31.19c3.37,1.94,9.18,4.44,11.68,6.92c-0.39,13.26-32.77,25.24-29.77,40.3
		C605.73,241.67,603.48,248.21,598.92,253.3z"/>
	<path class="st4" d="M524.14,213.22c-2.45-10.88,12.48-12.04,13.61-3.34C539.02,219.75,525.78,220.54,524.14,213.22L524.14,213.22z
		 M517.51,192.24c-14.66,1.71-22.38,5.49-30.46,13.21c-6.86,6.56-13.17,16.86-12.91,30.83c0.44,24.08,21.58,41.59,46.3,40.6
		c23.2-0.93,42.89-20.48,42.73-44.04C563,209.49,540.8,189.53,517.51,192.24z"/>
	<path class="st3" d="M540.34,409.63c1.6-3.57,6.59-2.14,10.38-7.38c16.01,4.72,17.44,3.68,26.86-5.41
		c12.12,3.95,16.33,1.62,22.19-6.23c4.82-0.86,7.41,1,12.19-1.36c3.7-1.82,4.42-3.65,6.58-6.64c6.97,6.69,13.94,56.07,14.36,69.51
		c0.58,18.33-0.4,40.96-4.95,58.11c-2.02,7.64-1.54,12.13-5.36,14.51l-1.49,0.75c10.45,2.65,10.71,14.93,3.32,19.62
		c-8.47,5.38-18.31-3.13-26.92,1.22c-7.08,3.57-3.71,16.04,10.62,9.78c9.28-4.06,18.19-2.57,18.18,8.96
		c-8.31,8.26-9.56,3.84-18.53,8.01c6.52,3.51,18.42,0.07,23.56-3.1c7.28-4.49,7.76-9.53,11.27-17.99
		c4.26-24.76,5.47-31.67,6.97-58.02c1.16-20.33,1.47-42.23-0.01-63.22c-1.39-19.83-3.99-38.22-9.62-55.34
		c-3.5-10.65-4.28-14.39-11.66-20.9c-5.26-4.64-14.36-9.87-23.78-7.67l1.17,9.85c5.32,4.12,12.86,6.94,10.21,17.6
		c-1.91,7.67-9.73,11.14-18.89,10.29c-3,8.61-10.69,10.84-21.12,7.38c-5.71,8.79-13.42,11.9-24.75,5.44l-5.47,4.09
		c-2.32,1.35-4.81,1.56-7.37,2.89l1.32,4.1c0.09,0.17,0.28,0.45,0.36,0.59C540.05,409.19,540.21,409.44,540.34,409.63z"/>
	<path class="st4" d="M435.39,238.16c7.29-5.4,13.17,5.96,7.38,10.07C436.43,252.73,427.49,244.02,435.39,238.16L435.39,238.16z
		 M482.83,266.98c-0.52-5.91-11.72-8.81-12.05-33.35c-0.15-11.5-29.68-23.35-51.34-9.55c-5.98,3.81-10.8,7.82-14.37,15.39
		c-12.46,26.41,8.02,52.09,30.87,52.12c3.17-5.43,1.34-6.95,6.73-11.07C453.4,272.31,469.52,274.06,482.83,266.98z"/>
	<path class="st5" d="M391.64,259.47l4.5-0.56c-8.47-2.18-42.21-26.8-43.81-31.18c-1.64-4.48,7.7-13.33,11.23-16.92
		c4.48-4.55,9.3-10.02,13.09-15.09c6.73-9.01,5.36-9.48,1.49-20.4c-4.63-13.07-18.24-33.8-18.74-38.23
		c-1.2-10.64,21.34-7.08,44.22-12.58c11.01-2.65,11.97-4.7,16.93-12.06c2.75-4.09,7.33-13.96,9.15-18.88
		c1.87-5.06,5.08-17.3,8.83-19.38c3.58-1.99,16.38,4.84,19.76,6.61c5.94,3.11,13.7,5.93,20.6,8.38
		c17.98,6.37,29.16-6.86,39.15-13.94c4.69-3.32,31.12-21.23,32.07-24.87c-3.12-6.42-10.27-0.45-14.52,2.31
		c-5.02,3.25-8.49,5.99-12.77,9.37c-7.33,5.78-17.75,14.68-26.11,19.12c-18.19,9.66-44.97-22.9-63.82-22.72
		c-2.92,4.71-4.75,6.05-7.01,11.62c-1.81,4.48-3.11,9.57-4.61,14.07c-3.57,10.68-4.7,19.38-10.94,27.55
		c-5.49,7.18-18.47,7.8-29.76,8.85c-5.36,0.5-29.92,2.44-31.87,6.51c-0.79,11.61,4.17,20.81,8.23,29.57
		c11.84,25.6,21.3,25.18-2.53,48.47c-2.76,2.7-18.64,15.21-20.46,18.38c2.34,7.91,18.45,18.35,24.48,22.02
		C367.91,251.25,378.97,256.82,391.64,259.47z"/>
	<path class="st6" d="M375.07,577.72c-0.68-4.29-0.26-4.11,3.69-6.11l0.87,25c0.92,4.31,7.86,18.83,10.92,22.92
		c4.79,6.41,9.77,10.72,17.08,12.86c7.92,2.31,19.52,0.59,24.77-3.61c-4.41-2.74-10.95-1.92-13.87-6.53
		c-2.58-6.05,3.33-16.55,2.04-24.19c-3.36-2.08-10.55-3.48-14.59-3.9c-3.22,0.97-0.29,0.05-3.28,2.16
		c-1.63,1.15-2.35,1.54-4.86,2.18c1.29-4.22,2.26-3.93,5.22-6.85c1.49-1.47,3.6-3.91,4.7-5.52c-4.48-2.79-9.66-0.05-11.05-6.83
		c1.5-3.18,8.8-7.58,12.26-10.76c4.4-4.04,8.37-7.06,11.55-11.47c-5.77-0.84-5.96-8.31-21.3-13.81l1.53-1.74
		c-17.88,4.5-37.91,32.9-37.03,39.2c0.59,4.26,7.21,12.1,10.79,13.76L375.07,577.72z"/>
	<path class="st3" d="M375.07,577.72c0.34-0.46,0.81-0.19,1.35-2.48c1.65,1.75,0.93,0.37,1.7,3.16l0.77,23.04
		c1.19,24.86,6.08,43.62,30.43,51.29c15.02,4.73,34.29,0.12,45.38-6.02c13.74-7.61,21.98-17.57,10.25-31.5
		c-5.88-0.12-17.22,3.64-26.44,4.52c-8.48,0.8-7.29-0.27-8.32-1.52c-4.08-4.82,4.89-22.31,2.34-30.37
		c-3.58-1.15-12.24-1.63-16.28-1.47c-5.72,0.23-8.6,4.84-10.26,7.78c4.03,0.43,11.23,1.82,14.59,3.9
		c1.29,7.64-4.62,18.14-2.04,24.19c2.92,4.6,9.46,3.79,13.87,6.53c-5.26,4.2-16.85,5.93-24.77,3.61
		c-7.31-2.13-12.29-6.45-17.08-12.86c-3.06-4.09-10-18.61-10.92-22.92l-0.87-25C374.82,573.61,374.4,573.43,375.07,577.72z"/>
	<path class="st7" d="M516.63,709.56l0.78,0.45c-2.87,1.19-8.76,6.89-10.77,9.08c-2.74,2.98-6.28,8.12-8.66,12.06
		c12.9-13.65,29.39-19.25,48.96-15.18c22.71,4.73,39.08,31,20.79,31.72c-7.3-10.38-22.14-16.51-39.96-13.36
		c-17.89,3.17-23.37,11.72-27.63,11.18c-4.06-0.52-5.71-3.43-5.28-8.46c-1.24,1.88-2.12,4.55-3.1,7.25
		c-1.09,2.99-1.48,5.45-3.64,7.57c1.19,3.42,14.4,9.25,18.39,10.37c7.04,1.96,17.02,3.9,24.96,4.12
		c11.34,0.31,42.83-0.99,47.64-10.63c6.78-13.6-10.58-45.52-36.77-48.76C535.55,706.13,520.15,705.91,516.63,709.56z"/>
	<path class="st8" d="M609.67,455.3c-0.17,5.48-3,41.7-6.09,42.39c-21.02,4.63-24.69,0.79-33.25-20.48
		c-3.56-8.86-16-35.02-17.47-40.42l-1.77-3.71c13.67-0.26,20.95,1.12,34.04-2.47c15.49-4.25,18.15-10.1,24.42-12.2
		C610.45,429.85,610.77,444.41,609.67,455.3L609.67,455.3z M623.19,530.6c4.86,2.4,3.26,11.8-5.44,12.4
		c-6.77,0.47-13.66-2.71-19.61-1.39c-12.43,2.76-8.81,22.73,5.63,19.52c3.8-0.84,13.16-6.38,17.29-2.24
		c11,11.04-26.7,13.94-40.56,3.75c-1.35-0.99-0.61-0.36-1.52-1.48c-6.59-0.22-28.28-21.44-31.05-25.56c-4.29-3.14-5.77-6-9.61-10.08
		c-2.89-3.07-5.82-6.7-8.65-10.15c-22.06-26.91-28.24-41.89-42.8-71.78c-3.86-2.11-1.1,0.96-2.78-3.8c-0.78,10.18,1.3,5,3.03,10.78
		c-0.48,2.6,1.84,6.04,2.66,8.29c2.12,3.22,5.44,10.91,7.84,15.2c18.85,33.79,34.27,49.47,59.94,75.72
		c2.49,2.55,10.31,8.17,11.49,9.95c9.94,4.14,13.17,9.41,29.07,12.66c6.92,1.41,4.83,2.14,10.1,4.34
		c14.91,6.23,32.37-6.78,35.4-18.12l1.96-2.07c0.45-1.64-0.71-4.56-1.22-6.57l-1.75,2c-3.51,8.46-3.98,13.5-11.27,17.99
		c-5.15,3.17-17.04,6.62-23.56,3.1c8.97-4.17,10.22,0.26,18.53-8.01c0.01-11.53-8.9-13.02-18.18-8.96
		c-14.32,6.26-17.7-6.2-10.62-9.78c8.62-4.35,18.46,4.16,26.92-1.22c7.39-4.69,7.13-16.96-3.32-19.62
		c-3.62-3.07-11.19,2.99-15.09,4.6c-4.6,1.9-15.28,4-17-2.42c-2.06-7.67,6.27-8.39,12.17-9.15c8.59-1.11,11.87-2.49,11.59-11.76
		c-6.39-12.83-5.97,3.97-1.81-29.75c0.95-7.72,1.53-15.21,2.11-23.5c0.61-8.63,0.7-16.6,0.73-25.26l-1.47-23.88l-1.91-1.65
		c-0.13-0.42-0.53-0.33-0.77-0.52c0.06,11.06,0.12,11.64-7.33,16.66c-4.24,2.85-9.6,5.7-16.09,7.67
		c-10.39,3.15-21.72,3.88-32.61,3.25c-7.51-0.43-3.86-1.5-8.4-3.04c0.23,3.46,7.38,17.92,8.9,21.44c3.21,7.43,5.94,13.82,9.2,21.61
		c5.14,12.28,12.53,34.89,27.89,33.63c4.64-0.38,9.56-2.77,14.23-0.81c3.9,1.64,5.17,7.16,2.16,10.26
		c-4.72,4.86-17.85-1.09-21.95,8.9c-3,7.32,2.01,15.45,16.69,13.27c10.4-1.54,10.84-7.11,16.22-6.89
		C621.39,528.25,622.3,529.41,623.19,530.6z"/>
	<path class="st9" d="M482.83,266.98c-13.31,7.08-29.43,5.33-40.16,13.54c-5.39,4.12-3.56,5.64-6.73,11.07
		c-22.85-0.03-43.33-25.71-30.87-52.12c3.57-7.57,8.39-11.58,14.37-15.39c21.66-13.8,51.19-1.95,51.34,9.55
		C471.11,258.17,482.31,261.07,482.83,266.98L482.83,266.98z M517.51,192.24c-14.66,1.71-22.38,5.49-30.46,13.21
		c-6.86,6.56-13.17,16.86-12.91,30.83c0.44,24.08,21.58,41.59,46.3,40.6c23.2-0.93,42.89-20.48,42.73-44.04
		C563,209.49,540.8,189.53,517.51,192.24L517.51,192.24z M398.68,252.43c1.34,5.35,0.47,5.65-0.41,8.86
		c-0.32,1.16-0.85,0.12,0.12,2.19l2.1,5.96l-4.25,2.65l6.42,0.73c2.41,5.35,9.67,13.49,15.15,15.68l1.12,9.2
		c2.01,1.73,0.53-0.16,1.33,2.5c0.33,1.1,0.36,1.44,0.43,2.59c0.1,1.58-0.32,4.28-0.39,6l1.03,0c1.78-4.46,0.62-11.15,0.82-16.41
		l5.29,1.7l8.76,1.76c3.12,10.45,9.18,17.57,21.93,17.3c9.53-0.2,25.16-5.25,28.25-12.26c-10.27,2.47-18.49,10.61-36.15,8
		c-13.09-5.51-16.48-24.24,1.85-29.4c8.86-2.49,21.26-4.28,29.71-8.34c5.82-2.8,4.81-3.04,8.98,0.84
		c28.3,16.44,57.29,6.41,70.71-18.54c6.97-12.97,4.23-16.34,4.58-30.83c4.94-5.41,11.45-8.56,13.64-18.41
		c-5.72,1.79-5.71,9.28-14.91,13.79c-1.62-1.54-5.69-9-7.32-11.1c-3.4-4.38-6.84-6.27-9.82-9.88c1.94-4.8,4.71-6.64,5.84-13.23
		c0.3-1.74,0.5-4.04-0.65-5.61c-2.9,3.14-1.21,6.22-8.22,16.52c-8.74-1.34-11.94-7.03-32.38-5.77c-1.07-2.98-2.23-15.24-3.77-17.19
		c-3.68,4.2-0.27,12.86-0.28,15.17l-0.35,2.19c-0.37,1.87-8.23,3.4-13.6,6.5c-5.22,3.01-7.6,6-11.38,8.77
		c-3.85-2.74-8.25-13.57-12.56-14.07c0.85,7.67,6.88,12.48,9.97,16.95c-3.15,6.46-6.16,8.97-8.7,18.49
		c-3.14-1.62-5.84-3.97-9.6-6.06c-4.44-2.47-7.81-2.99-11.53-4.58c-1.88-6.46-0.45-13.44-1.14-20.43
		c-5.79,2.13-3.42,14.2-3.22,19.61c-18.54,0.35-17.08,3.48-24.75,4.04c-1.67-3.12-7.76-14.96-10.01-16.13
		c-0.31,8.59,5.18,12.55,7.12,19.27c-9.3,3.53-15.2,15.66-18.35,19.1c-8.78-2.62-12.33-9.3-15.54-11.25
		c0.78,7.64,7.63,12.16,14.15,14.35L398.68,252.43z"/>
	<path class="st10" d="M528.65,649.14c3.17-2.24,6.07-3.41,9.42-5.26c3.16-1.74,5.81-4.47,8.79-5.72
		c5.21,1.49,11.77,11.84,17.97,16.06c-0.39,10.1-14.82,41.04-19.67,47.62c-4.38-0.05-8.87-0.65-13.69-0.56l-9.46,1.14
		c-4.77,1.58-1.91-0.52-3.3,2.13c10.32-1.42,16.41-3.04,27.73-0.84c11.21,2.18,15.53,7.32,20.22,8.16
		c8.01-23.87,17.98-40.63,24.91-69.1c1.03-4.22,1.75-8.35,2.64-12.72c1.25-6.15,3.21-7.73-2.98-9.97
		c-8.01,4.66-11.8,23.57-19.63,26.71c-8.86-4.52-20.65-23.85-26.45-24.61l-9.02,12.08C531.55,639.81,530.33,639.68,528.65,649.14z"
		/>
	<path class="st11" d="M569.06,559.74c5.91,20.65,31.4,22.99,35.3,26.07c8.42,6.64,11.14,4.03,13.17,6.28
		c1.56,3.33,3.36,15.6,3.55,20.45c0.64,16.25-0.97,11.96-2.35,21.52l-3.33-0.72c1.7,2.89,4.52,5.42,8.26,5.63
		c6.4-9.44,1.69-30.29,10.24-36.51c3.59-1.27,19.49,8.43,36.25,8.04c-0.78-3.23-10.23-19.77-13.18-26.11
		c-3.68-7.91-8.59-17.44-11.74-25.93l-1.61,0.17c-3.02,11.34-20.49,24.35-35.4,18.12c-5.26-2.2-3.18-2.93-10.1-4.34
		C582.22,569.15,579,563.88,569.06,559.74z"/>
	<path class="st1" d="M552.86,436.79c2.26,1.5,0.63,0.04,2.14,2.02l11.94,18.04c4.85,6.64,8.98,12,14.61,18.6
		c5.33,6.25,11.28,15.38,18.53,5.19c4.93-6.94,5.76-9.14,7.18-18.24c0.05-0.34,0.56-3.77,0.56-3.79c1.12-3.86,0.18-1.73,1.85-3.3
		c1.1-10.9,0.78-25.46-0.12-36.9c-6.27,2.1-8.92,7.95-24.42,12.2c-13.09,3.6-20.37,2.21-34.04,2.47L552.86,436.79z"/>
	<path class="st12" d="M528.65,649.14l-2.31,7.66l3.56,0.82c1.66,13.86-17.35,41.96-16.24,48.19l5.04-1.27
		c1.39-2.64-1.47-0.54,3.3-2.13l9.46-1.14c4.82-0.09,9.3,0.51,13.69,0.56c4.85-6.57,19.28-37.51,19.67-47.62
		c-6.19-4.21-12.76-14.56-17.97-16.06c-2.98,1.25-5.63,3.98-8.79,5.72C534.72,645.73,531.82,646.9,528.65,649.14z"/>
	<path class="st5" d="M486.88,443.6c14.56,29.88,20.75,44.87,42.8,71.78c2.83,3.45,5.76,7.08,8.65,10.15
		c3.84,4.08,5.32,6.94,9.61,10.08c1.05-2.32-3.45-6.72-4.9-8.79c-8.41-11.95-8.14-7.62-18.58-27.6l-19.91-41.49
		c-1.77-4.2-2.68-7.37-4.31-11.1c-3.01-6.85-9.84-26.88-11.33-34.83c-1.57-8.38-2.95-21.15,1.22-27.42
		c7.23-10.83,15.35-8.54,19.6-10.56c-5.83-4.14-19.02-1.02-23.74,2.03c-6.03,3.9-9.6,9.96-10.44,19.05
		C473.82,413.41,483.03,428.64,486.88,443.6z"/>
	<path class="st13" d="M409.35,582.14c7.13,0.38,12.9-6.43,16.28-9.74c4.4-4.31,8.33-8.5,12.49-13.05
		c12.69-13.9,11.8-13.32,22.02-28.37l18.19-33.19c3.04-6.84,12.34-31.41,11.45-38.91c-0.81-2.24-3.14-5.69-2.66-8.29
		c-4.54,0.41-2.77-0.65-4.99,9.56c-5.01,22.98-16.93,43.45-30,63.75c-6.05,9.39-16.79,22.62-23.67,30.01l-26.93,26.62L409.35,582.14
		z"/>
	<path class="st11" d="M609.67,455.3c-1.68,1.57-0.74-0.56-1.85,3.3c-0.01,0.03-0.51,3.45-0.56,3.79c-1.41,9.1-2.24,11.3-7.18,18.24
		c-7.25,10.19-13.2,1.06-18.53-5.19c-5.63-6.6-9.76-11.96-14.61-18.6l-11.94-18.04c-1.51-1.97,0.13-0.52-2.14-2.02
		c1.47,5.4,13.91,31.57,17.47,40.42c8.56,21.27,12.22,25.11,33.25,20.48C606.67,497.01,609.5,460.79,609.67,455.3z"/>
	<path class="st14" d="M499.75,742.37c3.3-0.51,28.32-21.68,57.17-7.68c10.66,5.17,9.38,10.03,15.21,8.93
		c2.77-10.81-17.35-25.42-36.35-25.58c-14.41-0.12-24.87,4.59-33.72,13.55C497.93,735.77,496.4,736.99,499.75,742.37z"/>
	<path class="st15" d="M379.09,639.89c15.59,1.3-1.32,1.9,19.92,12.92c17.1,8.88,38.39,7.27,55.52-2.06
		c6.39-3.48,9.58-6.28,14.42-11.15c2.25-2.26,1.19-2.41,3.74-3.69c2.34,3.4,4.02,6.6,9.97,3.73c3.95-1.91,4.49-3.13,7.36-6.28
		c3.3-3.62,10.09-13.22,16.85-13.21c2.86,4.1,4.31,11.25,6.01,16.29c2.83,8.36,2.95,8,10.42,11.47c0.58,8-14.05,45.44-18.22,55.1
		c-6.13,14.16-8.11,12.7-12.88,18.68c-1.76,2.21-2.71,4.44-4.33,6.77c-5.1,7.32-10.4,22.38,0.55,29.57
		c14.6,9.59,41.83,14.19,60.26,12.29l12.79-2.26c2.83-0.77,0.22,0.02,2.88-0.83c3.19-1.03,12.94-3.91,15.49-5.69
		c10.19-7.11,3.12-34.58-9.4-43.84c1.36,4.48-0.19,0.12,1,2.35l3.35,4.59c4.36,6.55,7.65,14.07,8.31,22.38
		c1.29,16.28-8.19,14.11-20.95,18.15c-17.13,5.42-54.96,2.1-69.32-6.45c-4.36-2.6-8.9-5.13-9.12-11.29
		c-0.15-4.32,2.34-13.08,4.34-16.22c2.86-4.49,5.16-8.53,8.76-11.7c8.01-7.07,16.14-30.49,19.47-41.03
		c2.56-8.12,9.51-23.1,8.41-31.85c-10.01-5.57-6.36-0.66-10.9-12.93c-2.02-5.46-3.03-12.09-7-15.63
		c-9.25-0.19-21.51,22.19-28.85,20.78c-4.4-0.84-2.49-6.29-6.86-3.97c-2.29,1.22-21.75,29.05-62.19,20.23
		C387.67,650.47,385.84,630.62,379.09,639.89z"/>
	<path class="st16" d="M503.58,357.18l-5.49-0.61c11.78-7.98,59.66-13.25,76.55-49.35c-7.07,4.18-5.97,10.75-36.88,24.82
		c-10.18,4.63-44.56,16.24-45.41,16.85c-0.33,4.89,1.11,8.74,5.97,9.43C501.24,358.74,501.95,358.33,503.58,357.18z"/>
	<path class="st17" d="M499.75,742.37c-3.34-5.38-1.82-6.6,2.31-10.78c8.84-8.96,19.3-13.67,33.72-13.55
		c19,0.16,39.12,14.77,36.35,25.58c-5.83,1.11-4.55-3.76-15.21-8.93C528.06,720.69,503.05,741.86,499.75,742.37L499.75,742.37z
		 M497.98,731.16l-3.11,5.91c-0.44,5.03,1.22,7.94,5.28,8.46c4.26,0.54,9.74-8.01,27.63-11.18c17.82-3.16,32.66,2.97,39.96,13.36
		c18.29-0.72,1.92-26.99-20.79-31.72C527.37,711.91,510.87,717.5,497.98,731.16z"/>
	<path class="st18" d="M347.69,631.35c2.41,1.05,0.85,0.87,1.9-0.02l0.88-19.66c0.09-0.99,0.16-2.35,0.4-3.29
		c0.78-3.12-0.22-0.88,1.07-2.35l2.13-7.95c0.35-2.22,5.09-16.81,6.74-19.05c2.39-8.54,10.84-20.32,16-25.59
		c16.48-16.84,21.77-11.57,25.88-16.06c-9.19-4.46-22.33,7.07-26.75,10.87c-6.11,5.26-12.1,12.99-17.42,21.88
		C349.42,585.34,339.05,609.9,347.69,631.35z"/>
	<path class="st5" d="M612.34,404.37l1.47,23.88c-0.02,8.65-0.12,16.63-0.73,25.26c-0.59,8.29-1.16,15.79-2.11,23.5
		c-4.16,33.72-4.59,16.92,1.81,29.75c-0.01-0.04,4.25-21.91,4.68-24.02c1.57-7.72,2.77-19.53,2.69-28.03
		c-0.22-24.03-3.02-30.18-3.43-41.83c-0.17-4.73-0.3-9.55-4.16-10.8L612.34,404.37z"/>
	<path class="st16" d="M578.99,561.17c0.91,1.12,0.17,0.49,1.52,1.48c13.85,10.19,51.55,7.29,40.56-3.75
		c-4.13-4.14-13.49,1.4-17.29,2.24c-14.44,3.21-18.05-16.76-5.63-19.52c5.96-1.32,12.84,1.86,19.61,1.39c8.7-0.61,10.3-10,5.44-12.4
		c0.05,0.28,0.3,1.17,0.33,1.39c0.64,4.68-5.35,6.29-9.2,6.66c-6.06,0.57-11.21-1.13-17.38,0.3c-14.4,3.35-10.08,11.67-13.95,21.79
		L578.99,561.17z"/>
	<path class="st5" d="M450.23,308.88c-0.57-4.54-8.81-16.35,14.08-23.04c7.23-2.11,24.84-7.18,26.45-13.86
		c-4.17-3.89-3.16-3.64-8.98-0.84c-8.44,4.06-20.85,5.85-29.71,8.34C433.75,284.63,437.15,303.36,450.23,308.88z"/>
	<path class="st16" d="M616.65,262.71c-0.18,2.6,2.19,1.68-6.23,2.99c0.52,3.35,5.37,7.55,0.45,13.12
		c-0.13-0.17-0.31-0.39-0.36-0.52l-0.6-1.95c-0.33-2.95,1.12-3.06-1.32-7.83c-6.55,1.19-3.19,4.32-7.52,8.02l0.8-6.15
		c-2.02,1.34-1.32-1.12-1.93,3.33l1.38,15.44c-0.76,0.41-0.41,0.5-2.57,0.54c1.03,1.11-0.63,0.47,2.22,1.69
		c5.47,2.35,14.07,0.28,18.42-6.52c2.95-4.62,3.82-11.01,2.36-16.83c-0.04-0.17-0.76-2.42-0.82-2.55c-1.38-2.9-0.29-1.19-1.98-2.65
		l-0.31,1.14C618.53,261.36,618.91,263.85,616.65,262.71z"/>
	<path class="st19" d="M550.96,379.61c2.18,4.92,2.08,8.81,2.42,14.92c8.54,7.29,21.18,0.55,19.73-11.42
		C571.76,371.89,556.32,369.43,550.96,379.61z"/>
	<path class="st20" d="M421.33,308.79c-1.1,7.64-14.53,32.33-4.25,37.64c1.51,0.68,2.11,1.22,4.41,1.61
		c-2.6-7.18,2.37-19.21,4.29-25.67c3.83-12.94,3.07-14.1,1.67-28.3l-5.29-1.7C421.95,297.64,423.11,304.33,421.33,308.79z"/>
	<path class="st21" d="M527.29,383.02c2.89,6.81,7.05,11.05,9.12,17.18c6.27-0.3,9.44-1.38,11.94-5.43
		C556.81,381.04,535.8,367.38,527.29,383.02z"/>
	<path class="st22" d="M577.18,388.51c14.55,7.34,23.4-10.39,13.15-19.08c-5.3-4.49-13.77-1.32-16.18,2.58
		c-2.36,3.82,0.11,4.29,1.45,7.89C576.84,383.24,576.24,385.29,577.18,388.51z"/>
	<path class="st23" d="M355.87,603.33c-3.68,9.14,1.22,16.68,6.22,22.49c6.23,7.25,25.19,20.94,16.3-0.08
		c-1.8-4.26-4.99-4.67-8.05-7.27L355.87,603.33z"/>
	<path class="st7" d="M354.06,598.08l3.52-0.15c3.55,7.09,12.13,16.53,18.62,20.41c1.07-2.46-0.45-8.73-0.66-12.58
		c-0.31-5.65-0.03-6.32-3.73-9.26c-5.08-4.04-11.37-9.07-11.01-17.49C359.15,581.27,354.41,595.85,354.06,598.08z"/>
	<path class="st24" d="M592.64,364.59c0.72,4.51,1.88,3.86,3.84,7.25c1.73,2.99,1.43,6.77,2.23,8.05c3.2,5.11,11.74-1.78,13.06-4.46
		c2.68-5.43-1.14-12.15-4.58-14.32C600.3,356.75,596.03,361.88,592.64,364.59z"/>
	<path class="st25" d="M513.67,705.81c-1.12-6.22,17.9-34.33,16.24-48.19l-3.56-0.82c-1.14,1.99-3.7,10.43-4.59,13.42
		c-3.15,10.58-6.49,16.41-10.03,25.71c-1.6,4.22-4.69,9.65-5.11,13.45L513.67,705.81z"/>
	<path class="st26" d="M347.69,631.35c4.43,12.21,17.56,11.26,24.74,7.66c-11.53-9.5-21.85-14.55-20.5-32.99
		c-1.29,1.48-0.29-0.76-1.07,2.35c-0.24,0.94-0.31,2.3-0.4,3.29l-0.88,19.66C348.54,632.23,350.09,632.4,347.69,631.35z"/>
	<path class="st27" d="M488.12,751.88c2.17-2.12,2.56-4.57,3.64-7.57c0.98-2.7,1.86-5.37,3.1-7.25l3.11-5.91
		c2.38-3.94,5.92-9.08,8.66-12.06c2.01-2.18,7.9-7.89,10.77-9.08l-0.78-0.45c-9.7,1.2-17.77,9.5-21.99,15.48
		C491.07,730.12,481.44,746.51,488.12,751.88z"/>
	<path class="st28" d="M574.79,637.81c0.18-3.48-2.03-3.79-5-6.37c-1.95-1.69-3.78-3.35-5.99-5.12c-3.66-2.93-9.2-8.42-13.74-7.37
		c1,2.33,7.77,9.47,10.56,12.3c3.4,3.45,8.08,9.99,11.92,11.23L574.79,637.81z"/>
	<path class="st18" d="M512.02,620.87c1.33,6.22,4.98,16.12,7.67,21.64l4.49-0.72c2.21-4.94-1.95-10.82-3.81-15.36
		c-2.01-4.91-4.03-9.94-9.52-10.86C511.17,618.77,511.16,617.75,512.02,620.87z"/>
	<path class="st5" d="M420.51,557.05c1.42-1.2,2.35-2.65,3.34-4.24c-2.35-6.28-14.06-14.67-23.11-11.31l-1.53,1.74
		C414.55,548.74,414.74,556.21,420.51,557.05z"/>
	<path class="st29" d="M524.14,213.22c1.65,7.32,14.88,6.53,13.61-3.34C536.62,201.18,521.69,202.34,524.14,213.22z"/>
	<path class="st28" d="M468.87,612.53c0.6,2.8,3.46,8.12,4.65,11.8c1.47,4.58,1.86,9.87,5.08,12.43c3.06-0.8,2.51-0.71,4.18-2.81
		C483.14,626.19,469.56,603.15,468.87,612.53z"/>
	<path class="st29" d="M435.39,238.16c-7.9,5.85,1.05,14.57,7.38,10.07C448.56,244.13,442.68,232.76,435.39,238.16z"/>
	<path class="st25" d="M605.79,264.26c1.26-0.33,0.78,0.95,1-0.69c1.51-3.45,1.35-1.44,0.62-5.12c-5.08-3.04-17.18,3.19-13.51,10.97
		C599.63,271.64,599.11,266.13,605.79,264.26z"/>
	<path class="st30" d="M606.79,263.57c-0.22,1.64,0.27,0.35-1,0.69c-1.07,2.01-2.52,3.81-3.93,6.14l-0.8,6.15
		c4.33-3.69,0.98-6.83,7.52-8.02c2.44,4.77,0.99,4.88,1.32,7.83l0.6,1.95c0.05,0.13,0.23,0.35,0.36,0.52
		c4.93-5.58,0.07-9.78-0.45-13.12c8.43-1.31,6.05-0.39,6.23-2.99C612.37,262.95,612.07,261.87,606.79,263.57z"/>
</g>
</svg>
