<?xml version="1.0" encoding="utf-8"?>
<!-- Generator: Adobe Illustrator 27.5.0, SVG Export Plug-In . SVG Version: 6.00 Build 0)  -->
<svg version="1.1" id="Layer_1" xmlns="http://www.w3.org/2000/svg" xmlns:xlink="http://www.w3.org/1999/xlink" x="0px" y="0px"
	 viewBox="0 0 800 600" style="enable-background:new 0 0 800 600;" xml:space="preserve">
<style type="text/css">
	.st0{fill-rule:evenodd;clip-rule:evenodd;fill:#231F20;}
	.st1{fill-rule:evenodd;clip-rule:evenodd;fill:#FFDD00;}
	.st2{fill-rule:evenodd;clip-rule:evenodd;fill:#FFFFFF;}
	.st3{fill-rule:evenodd;clip-rule:evenodd;fill:#9CDBF8;}
	.st4{fill-rule:evenodd;clip-rule:evenodd;fill:#00A6E8;}
	.st5{fill-rule:evenodd;clip-rule:evenodd;fill:#FFFFFF;stroke:#FFFFFF;stroke-width:0.9619;stroke-miterlimit:2.6131;}
</style>
<path class="st0" d="M280.52,359.2l-1.39-1.65c-3.18,0.27-6.67,1.12-9.18,2.93c0.48,1.38,0.62,2.97,1.44,4.15
	c2.25-0.73,4.45-2,7.12-2.05C279.29,361.45,280.28,360.46,280.52,359.2L280.52,359.2z M328.59,65.98c0.73,2.25,0.93,4.54,2.16,6.4
	l0.7-0.24c2.57-5.21,4.49-11.79,10.08-14.95c2.04-1.07,2.6,1.19,3.4,2.19c-0.57,7.71,0.84,15.61,2.7,22.74
	c14.33,45.76,31.03,90.06,49.45,133.68c4.05,1.61,9.12,0.45,12.75,3.33c7.08,5.62,8.9,16.14,6.43,24.55
	c-0.58,1.65-1.5,3.33-1.87,5.15c4.37,5.14,10.46,9.6,15.83,13.94c8.2-1.79,16.56-0.03,24.51,1.41c3.05-1.87,5.47-4.75,8.48-6.8
	c7.58-5.11,18.77-9.48,27.93-4.58c2.54,0.67,4.81,4.21,7.82,1.99c20.36-5.52,41.54-1.5,58.94,8.2c1.07-2.04,1.18-4.9,3.74-6.2
	c2.7-1.66,6.79-1.66,9.41-0.29c3.86,3.41,7.06,7.4,7,12.92c0.97,0.8,2.48-0.22,3.72-0.33c2.93-1.15,5.55,0.23,8.4,0.34
	c6.32-7.14,17.49-9.9,26.82-6.98c2.23,1.06,4.34,2.83,5.43,5.05c0.76,2.78,0.68,5.82-0.52,8.42c-4.36,5.01-12.14,3.73-16.56,8.22
	c0.41,4.77,5.8,1.1,8.57,2.1c6.65,0.66,14.58,1.93,18.19,8.55c0.95,4.73-0.21,9.82-4.23,12.67c-7,1.5-14.74-1.55-21.41,1.52
	c4.11,4.27,8.07,8.91,6.85,15.25c-0.89,2.21-2.48,4.31-4.71,5.21c-6.44,1.82-11.89-3.58-15.85-8.04c-1.26,1.7-1.92,4.44-3.94,5.86
	c4.17,14.95,3.84,31.53-3.41,44.46c3.08,12.73,8.03,24.59,14.68,35.39c-0.27,3.06-2,5.53-3.74,8.18
	c-4.91,7.01-12.18,11.38-18.95,15.36c-1.11,1.53,0.08,3.03-0.14,4.64c4.91,3.14,9.95,5.72,15.13,7.95c3.3-0.83,7.74-3.01,11.6-1.57
	c1.73,1.28,4.69,2.62,4.73,4.93l0.39,0.49c13.79-5.12,30.53-5.16,41.79,5.43c10.09,13.54,9.06,32.33,8.92,48.91
	c-2.72,7.72-0.16,18.54-9.97,22.42c-16.31,9.08-33.67,16.12-54.11,16.66c-12.01-1.07-23.86-4.14-33.01-12.95
	c-2.09-1.6-1.26-4.35-0.58-6.53c4.77-8.8,13.17-14.51,22.6-16.41c0.04-5.7-1.51-11.09-0.72-16.49c-1.65-0.56-3.74-0.02-5.57-0.58
	c-4.89-0.99-6.03-5.88-6.75-10.1c-11.56-3.8-25.66-10.4-29.65-23.22l-3.45-8.96c-5.57-0.58-12.26,2.32-16.31-3.2
	c-0.99-9.19-3.32-17.52-4.98-26.28l-3.18,0.28c-6.09,7.65-9.1,16.11-13.91,24.01c-7.33,5.81-18.89,3.96-27.5,3.3
	c-5.55-0.24-10.57-2.64-15.98-3.42c-0.45,0.93-1.75,0.33-2.21,1.26c-4.85,1.5-1.55,6.54-1.63,9.76c0.89,4.03,2.31,7.99,3.72,11.96
	c4.11,2.14,9.97,4.12,12.2,9.08c2.15,2.12-1.69,5.13,1.65,6.8c11.71,9.65,16.95,22.73,19.65,37.28c-0.17,4.28,0.62,9.2-3.2,12.2
	c-32.39,18.68-81.05,20.1-113.03,0.64c-3.07-2.42-0.76-6.71-0.52-9.93c4.86-17.7,19.64-36.1,37.5-41.58
	c1.23-2.24,1.53-4.93,3.68-6.92c1.06-2.04,5.65-2.62,2.89-5.58c-5.06-13.1-11-32.16,0.77-44.06c1.67-3.35,6.33-5.01,5.83-8.7
	c-1.04-1.69-1.24-3.98-1.41-5.94c3.21-6.15,8.45-11.43,13.57-15.78c-3.92-4.29-5.31-9.87-7.71-15c-5.13,4.53-9.48,11.86-17.49,9.9
	l-8.36-1.94c-13.7,14.37-30.19,25.25-50.82,23.68c-11.27-0.62-22.06-1.82-32.22-5.9c-1.54,0.66-2.61-1.38-3.93-0.2
	c8.05,22.8,14.23,46.67,23.99,68.6c2.66,1.91,1.86,5.01,2.45,7.63c-4,11.21-15.2,17.53-25.35,21.62
	c-13.09,5.06-32.93,10.35-44.55-0.38c-2.58-2.97-0.72-8.3-3.5-11.45c-7.67-26.57-14.82-53.38-24.21-79.27
	c-2.55-0.66-4.55-3.16-4.97-5.8c0.13-8.73,8.36-16.39,15.29-20.75l2.1-4.46c-1.84-4.82-3.86-9.63-5.21-14.85
	c0.63-2.9,3.98-3.38,5.95-5.33c-1.1-2.41-1.22-5.77,0.01-8.02c6.14-7.12,13.62-13.29,23.5-12.2c5.69,1.82,10.68,6.01,16.08,8.73
	c6.47-3.41,14.8-1.82,20.04,3.07c5.01,2.23,4.56,9.4,10.43,9.24c7.98,1.61,15.97,3.41,24.66,3c6.11-3.39,11.56-8.31,16.83-13.22
	c-1.55-5.57,0.06-11.58,4.38-15.17c5.08-5.06,10.98-8.8,16.92-12.16l-0.26-3c-3.9-1.8-8.35-1.77-11.81-4.65
	c-6.35,2.68-14.32,7.3-21.33,2.56c-2.44-1.38-4.21-3.37-4.28-6.2c-2.19-0.7-3.09,1.34-4.83,1.67
	c-19.19,10.76-39.77,19.68-63.36,20.85c-3.79-0.55-7.84-1.97-10.11-5.52c-7.35-18.95-16.25-37.22-25.13-55.32
	c-7.97-3.58-16.3-9.26-20.55-17.08c-6.03-7.84-4.59-19.9-2.89-28.95c-2.62-1.55-5.74-2.53-6.72-5.65
	c-2.01-4.63-0.08-9.08,0.97-13.26c-9.72-19.63-20-39.21-31.07-58l-9.64-12.52c-0.84-1.35-0.83-3.31-0.78-4.92
	c4.9-2.92,10.64-0.4,15.57,0.95c1.27,0.25,2.86,2.07,4.16,0.71c-1.62-6.28-3.95-12.65-3.48-19.47c2.38-3.23,6.7-0.76,9.9-0.86
	c3.82,0.91,7.05,3.29,10.53,4.42c-0.94-6.68-4.05-13.71-1.78-20.31c4.19-3.05,8.12,1.24,12.14,2.32c2.44,1.39,4.73,3.15,7.16,4.53
	l0.81-0.96c-0.78-4.92-2.05-11.21-0.7-16.14c1.26-1.89,3.42-1.72,5.25-1c5.11,1.34,8.94,6.53,13.12,9.54
	c0.53-2.18-0.59-4.75-0.79-7.05c0.29-4.83-0.88-10.07,1.79-14.23c2.16-1.79,3.96,0.55,5.8,1.1c4.27,4.08,9.28,8.44,13.7,12.16
	l0.97-1.16c0.84-6.66-1.64-14.64,3.63-19.55c5.6,0.94,9.1,6.33,12.62,9.94c1.21,1.67,2.27,3.54,3.64,5.02
	c1.06-0.09,1.32-1.19,1.6-2.1c1.62-5.84,1.02-12.73,5.97-17.26c5.32-0.28,7.08,5.61,9.68,8.94c0.69,1.73,1.9,3.4,2.77,5.1
	c2.71-5.58,2.64-12.53,7.91-17.44c0.53-0.22,1.4-0.29,1.95-0.16C325.68,59.11,327.24,62.71,328.59,65.98L328.59,65.98z"/>
<path class="st1" d="M331.09,76.26c4.48-1.81,4.53-7.34,7.06-10.94c1.31-1.37,1.65-3.53,3.7-4.6l0.4,0.5
	c-0.99,23.23,10.81,42.15,15.9,63.61c11.12,31.44,23.27,62.43,36.45,92.98c-2.93,3.11-7.12,6.14-6.73,10.56
	c3.34,1.67,2.19-3.4,4.75-4.69c2.74-3.26,6.68-5.03,10.86-4.15c4.72,1.02,8.82,5.28,10.27,9.61c1.36,5.4,1.78,12.13-1.74,16.72
	c-3.74,4.06-10.99,4.53-15.94,3c-0.67,0.41-0.4,1.46-0.01,1.96c3.79,2.51,10.19,2.49,14.07,0.01l1.96,0.01
	c4.34,4.79,9.87,8.93,14.49,12.99c-6.28,3.57-12.36,7.3-17.39,12.91c-9.91,10.83-16.12,23.32-18.32,36.87l-0.69,0.24
	c-3.74-1.99-8.02-2.15-11.31-5.24c-2.82,0.42-5.11,2.76-7.88,3.71c-4.7,1.32-10.1,2.5-14.17-1.24c-1.53-1.12-1.01-3.47-0.98-5.09
	c0.1-0.9,1.08-1.87,0.29-2.87c-2.47,0.39-4.4,2.7-6.64,3.61c-20.17,9.59-40.06,20.42-64.38,21.3c-3.23-0.25-6.54-1.57-8.23-4.44
	c-3.21-6.13-5.22-12.9-7.75-19.45c-5.58-10.91-10.83-22.03-15.72-33.17c4.14,0.53,8.58,0.32,12.72-1.11
	c2.23,5.15,7.15,10.41,13.06,10.79c11.38-0.28,21.02-6.11,27.93-14.55c-0.06-0.71-0.27-1.05-0.85-1.53c-2.78,0.78-3.79,3.54-6,4.8
	c-7.05,4.89-16.74,10.02-25.65,5.98c-4.36-3-6.03-7.84-5.4-12.88c2.52-9.83,13.8-11.18,20.59-16.93c3.07-1.7,5.74-5.67,9.43-4.21
	c14.25,6.05,32.72,1.58,43.14-9.65c10.27-10.87,14.28-26.18,8.73-40.66c-5.89-12.48-19.78-22.48-33.75-21.44
	c-15.63,0.48-28.95,8.94-36.46,22.96c-1.64,3.53-3.48,7.08-3.82,11.2c-1.63-0.22-2.81-1.54-4.45-1.92
	c-14.27-4.28-29.89,0.29-39.6,11.47c-2.27,2.51-3.61,5.49-5.35,8.13c-2.86-0.11-5.07-2.94-5.81-5.37c-1.7-5.2,1.91-8.72,1.14-13.46
	c-10.58-19.19-20.67-38.8-31.76-57.77l-9.36-11.28l-0.19-2.12c6.74-0.41,12.7,2.62,18.91,4.4c1.81-1.76,0.64-4.87,0.11-6.78
	c-2-4.63-2.87-10.43-3.13-15.4c7.39-1.01,13.25,4.9,20.11,5.9c3.05-3.83-1.06-8.1-1.09-12.54c-0.99-3.12-1.46-6.47-0.68-9.74
	c7.64-0.31,12.83,8.13,20.12,8.03l0.65-0.77c-0.69-5.81-2.88-12.56-1.22-17.87c7.14,0.09,10.58,8.87,16.98,10.81
	c4.2-2.86,0.47-8.77,0.8-13.25c0.46-2.89-0.54-6.19,0.84-8.8c2.49-0.03,4.51,2.64,6.61,4.23c4.07,3.75,8.05,8.56,13.44,9.16
	c1.86-3.19,1.49-7.43,1.35-10.98c0.98-3.12-0.62-7.07,2.22-9.28c6.7,3.33,9.1,10.43,14.45,14.6c2.2,0.69,3.08-1.52,4.03-2.85
	c1.29-5.63,2.21-11.41,4.98-16.46c6.01,3.57,6.32,11.19,11.64,15c5.22-1.35,3.11-7.21,5.28-10.79c1.03-2.41,1.67-5.31,3.6-7.61
	C326.69,64.54,324.6,73.27,331.09,76.26L331.09,76.26z"/>
<path class="st2" d="M343.9,185.9c-1.26-0.07-3,0.26-4.38,0.91c-1.49,1.38-2.21,3.23-2.59,5.04c0.58,2.44,2.07,5.16,4.77,5.64
	c1.68,0.93,3.54-0.3,4.92-0.78l2.11-2.33c4.8,12.05,0.14,24.04-6.84,33.72c-9.04,10.59-23.05,15.37-36.53,11.92
	c-11.83-2.89-22.74-13.68-24.86-25.6c-2.9-12.74,3.36-24.7,13.31-33.04c8.8-7.18,22.54-11.05,33.91-7.24
	C333.79,176.28,340.7,179.95,343.9,185.9L343.9,185.9z"/>
<path class="st2" d="M276.86,207.44c-0.05,3.57,0.11,7.47,1.1,10.58c-2.3,0.21-4.11,1.96-5,4c-0.7,2.2,0,4.1,1.57,5.75
	c1.36,1.31,3.33,1.48,5.09,1.15c1.06-0.09,1.61-1.92,2.7-1.66c2.36,4.6,7.28,7.91,11.14,11.31c-7.74,7.09-18.02,9.77-25.35,17.54
	c-2.58,3.08-1.86,7.29-2.8,10.75c-11.5,2.97-21.99-0.93-29.89-9.85c-7.44-7.72-10.82-21.85-6-31.88
	c6.41-14.28,20.23-23.14,36.17-22.22C269.58,203.63,273.77,204.68,276.86,207.44L276.86,207.44z"/>
<path class="st0" d="M404.31,225.14c-0.15,2.33-3.27,1.35-3.99,3.2c3.88,1.62,5.98,5.18,6.68,9.21c-0.1,0.9-1.32,1.19-2.05,0.9
	c-0.96-2.77-2.01-6.77-5.78-6.98c-0.78,1.15,0.04,2.49,0.67,3.51c0.64,1.19,2.77,1.18,2.01,2.67c-0.79,1.14-1.82-0.38-2.71-0.47
	c-1.52-1.12-2.03-2.85-2.36-4.6c0.07-3.22,1.34-7.06,4.8-8.25C402.63,224.22,403.87,224.11,404.31,225.14L404.31,225.14z"/>
<path class="st3" d="M496.7,259.43c5.53,4.15,10.73,8.68,13.71,14.12c-7.08,0.62-13.42,1.35-19.92,2.46
	c-10.01-4.64-20.64-8.16-31.24-11.16c1.26-1.88,3.45-3.32,5.29-4.73c6.73-4.33,16.49-8.92,24.69-4.66L496.7,259.43L496.7,259.43z"/>
<path class="st1" d="M578.95,287.51c0.74,0.29,1.16-0.82,1.32-1.19c-3.76-8.39-11.99-14.8-19.12-20.94
	c-0.16-1.95,0.39-3.78,1.32-5.29c1.28-1.54,3.41-1.72,5.39-1.54c5.2,2.57,6.98,8.46,7.82,14.1c1.75,1.8,4.42-0.39,6.54-0.57
	c2.68,0.12,5.64-0.67,7.41,1.49c2.27-0.56,2.72-3.44,4.77-4.52c6.34-5,16.74-6.27,24.03-2.28c1.55,1.46,2.44,3.52,2.11,5.69
	c-2.09,4.82-8.36,4.29-12.45,6.26c-2.04,1.06-4.85,1.67-5.33,4.38c-0.41,1.29,0.08,2.85,0.7,4.04c2.35,4.25,7.58,1.12,11.25,2.22
	c5.43,1.12,12.61,1.74,14.58,7.98c0.25,2.83,0,6.05-2.72,7.37c-7.93,1.05-18.44-3.02-24.24,3.9c0.21,2.48,3.49,3.26,4.56,5.31
	c2.21,3.01,4.93,7.58,2.42,11.35c-0.95,1.52-2.85,2.03-4.48,1.65c-5.7-2-11.33-7.39-12.74-13.15
	c-17.26-26.26-47.5-40.18-77.58-40.04c-3.22-6.3-9.02-11.5-14.43-16.37c15.28-4.36,32.08-1.73,46.28,3.79
	C558.74,266.12,571.37,276.24,578.95,287.51L578.95,287.51z"/>
<path class="st3" d="M456.07,267.27c10.22,2.84,20.46,5.87,30.43,9.8l0.02,0.36c-3.92,1.94-9.83,1.57-11.93,6.03
	c2.25,1.4,4.73-0.95,7-1.33c33.98-10.62,70.17-4.17,96.47,19.7c3.51,3.43,6.48,6.92,9.13,10.6c-30.72-13.16-69.51-0.68-95.71,15.5
	c-22.07,12.43-40.46,34.17-51.26,57.37c0.1,1.05-0.33,2.34-1.34,2.79c-2.02-0.71-2.97-3.3-4.19-4.98c-1.59-3.95-3.34-7.9-3.22-12.36
	c6.87-13.08,12.22-31.35,2.5-44.75c-8.73-10.28-21.8-13.05-34.46-9.27c-1.88,0.87-4,1.06-5.9,1.75
	c1.32-21.66,17.82-46.78,39.5-53.31C441.25,264.65,448.54,266.51,456.07,267.27L456.07,267.27z"/>
<path class="st0" d="M373.92,299.21c0.16,1.77-0.94,3.47-2.29,4.3c-1.72,0.68-3.56,2.09-5.59,1.2c-0.57-2.45,4.51-3.42,0.63-5.05
	c-2.28,0.38-4.23,2.51-6.34,2.87c-0.74-0.3-0.64-1.19-0.32-1.57c3.18-2.42,6.29-5.54,10.65-4.49
	C371.94,296.88,373.3,298.19,373.92,299.21L373.92,299.21z"/>
<path class="st3" d="M429.46,325.33c9.15,8.83,8.22,24.75,3.83,35.47c-3.76,7.99-9.29,16.12-16.62,21.76
	c-10.29,0.37-19.58-3.98-27.97-10.37c-10.74-8.68-17.09-20.23-17.02-33.77c11.45-13.64,28.18-21.87,46.41-19.02
	C421.94,320.83,425.98,322.25,429.46,325.33L429.46,325.33z"/>
<path class="st4" d="M578.87,312.98c12.12,16.56,12.72,43.76,2.5,61.21c-2.31,4.12-5.53,7.97-8.57,11.97
	c-0.14,0.55,0.25,0.87,0.78,0.99c4.29-1.97,7.08-6.67,9.79-10.47c2.04,3.03,2.23,7.29,3.96,10.69c2.56,6.91,5.97,13.37,9.72,19.63
	c-20.71-0.51-39.43,7.18-55.66,17.16c-6.09,3.74-11.91,8.34-16.78,13.75c0.12-6.61-2.4-12.96-4-19.23c-0.08-1.06-0.21-2.3-0.81-3.15
	c12.8-2.18,24.75-6.07,35.2-12.86c0.47-0.58,1.14-1.34,0.54-2c-0.6-0.66-1.63-0.39-2.13,0c-11.07,5.96-23.2,9.7-36.4,11.56
	c-5.59,1.01-12.9-1.01-17.8,2.08c3.22,2.21,7.62,1.65,11.56,2.01c-5.06,7.22-8.82,15.2-13.87,22.58
	c-6.65,3.44-15.63,2.44-22.81,1.82c-18.58-2.82-40.44-12.48-48.34-31.57c-0.74-2.43,1.59-4.23,2.3-6.24
	c4.86-5.59,10.22-11.41,16.05-16.02c-1.92-1.61,0.06-3.39,0.64-5.04c7.8-14.57,19.12-29.81,32.47-39.88
	C505.31,321.01,541.4,304.15,578.87,312.98L578.87,312.98z"/>
<path class="st1" d="M295.9,347.7c17.02,9.37,35.17,15.27,54.82,16.04l2.1-0.54c5.96-3.2,11.66-7.08,16.95-11.81
	c2.15,4.08,3.81,8.92,6.66,12.94c5.53,8.24,14.04,13.91,22.6,18.15c-12.38,13.19-27.58,22.53-47.11,21.22
	c-13.07-0.83-25.67-2.39-37.35-7.6c-2.88-0.29-4.91-5.27-8.04-2.33c-3.72,2.29-9.28-2.21-11.51,2.79c-1.46,3.7-3.39,8.13-7.1,10.43
	c-2.27,0.56-5.1,0.8-7.01-0.64c-3.74-4.13-0.07-9.06,1.35-13.11c0.86-2.4,3.15-4.73,1.68-7.27c-2.29-1.78-3.64-5.03-6.38-5.7
	c-5,4.02-10.55,9.66-17.73,6.91c-2.57-0.84-1.6-3.95-1.74-5.72c3.76-7.81,10.97-12.89,18.79-15.17c1.4-0.3,3.76,0.2,5.07-1.17
	c-2.22-3,3.87-4.6,1.12-7.58c-1.06-2.04-3.51-3.43-5.82-3.41c-5.61,1.02-10.83,6.47-16.38,1.97c-1.03-1.52-1.78-3.94-0.86-5.63
	c5.7-6.19,12.56-13.21,21.87-10.65L295.9,347.7L295.9,347.7z"/>
<path class="st3" d="M589.66,320.39c-0.62,1.14-0.85,2.75-2.02,3.39c-1.34-3.08-2.68-6.36-3.82-9.09
	C585.76,316.66,591.4,315.81,589.66,320.39L589.66,320.39z"/>
<path class="st1" d="M319.68,354.89c-6.42-2.12-12.71-4.77-18.69-7.99c1.49-1.37,4.21-0.72,6.19-0.54
	C312.34,346.45,316.35,351.44,319.68,354.89L319.68,354.89z"/>
<path class="st2" d="M266.25,360.98c1.2,1.51,1.71,3.24,2.22,4.98c-3.19,2.23-6.32,5.18-9.28,7.94c-0.64-1.19-1.14-2.76-1.78-3.93
	l-2.96-7.41c1.65-1.57,3.92-4.09,6.36-2.69C262.5,360.77,264.44,360.61,266.25,360.98L266.25,360.98z"/>
<path class="st3" d="M256.97,389.22l0.04,0.54c-5.41,3.32-10.13,8.36-13.38,13.98c-1.66-0.73-1.52-3.06-1.3-4.69
	c1.44-5.82,7.06-10.94,11.73-14.56C256.4,384.64,255.27,388.13,256.97,389.22L256.97,389.22z"/>
<path class="st2" d="M280.87,387.66c-0.45,2.89-2.39,5.19-3.23,7.76c-0.96,3.29-2.12,6.42-1.24,10.27
	c-2.58,1.12-4.79,4.33-5.27,7.04l2.96,3.3c-2.01-0.55-5.5-1.84-8.02-0.01c-2.34,1.62-3.16,4.54-5.34,6.16l0.07,0.71
	c4.77,3.66,8.73,8.31,12.97,12.04c1.58-0.32,2.49-2.18,3.45-3.32c-0.99-1.17-2.19-2.66-3.38-3.98c1.56-2.63,3.97-5.5,2.43-8.94
	c1.97,2.15,3.98,4.82,5.97,7.14c1.34-1,4.26-2.16,3.74-4.08c-1.2-1.49-2.56-2.8-3.59-4.48c1.95,0,4.43,1.73,6.42,2.11
	c0.89-2.04,4.13-1.61,3.53-4.41c1.83,0.55,3.09-1.34,3.86-2.65c-0.23-2.64-3.29-5.06-1.56-7.7c1.89,1.26,3.46,2.91,5.18,4.36
	c1.1-1.69,4.99-2.04,3.7-4.6l-6.1-4.62c-0.06-0.7,0.05-1.42,0.54-2c3.88-0.34,5.9,4.46,8.73,6.17c1.02-0.43,1.62-1.73,2.44-2.7
	c0.21-1.61-1.3-2.56-2.27-3.54c0.63-0.94,2.19-1.43,3.13-0.8l2.31,1.93c8.02,22.46,14.15,45.79,23,67.44
	c-19-3.51-38.68,3.74-53.87,13.25c-3.2,2.07-5.57,5.49-8.57,7.88c-2.24-7.28-4.82-14.36-6.72-21.85c2.5,2.11,5.25,3.1,7.6,5.39
	c1.47-1.55,3.06-3.65,3.42-5.64c-1.35-1.3-2.97-1.53-4.16-2.85c0.99-2.93,2.88-5.76,1.33-9.19c-0.84-1.36-2.53-2.46-4-3.03
	c-3.82-0.91-5.81,2.83-8.11,4.98l-3.07-10.6c3.29,0.95,8.51,1.57,10.88-1.84c0.88-2.22,1.73-4.6,0.62-7.17
	c-1.36-1.31-2.58-2.98-4.55-3.17c-2.44,0.57-5.34,2.06-7.1,0.27c-0.07-2.85,9.34-3.14,2.64-6.46c-2.62,0.58-5.67,0.31-7.25,2.58
	l-7.39-25.35c2.33-5.9,8.1-9.25,13.01-12.18c7.24,1.33,13.24-3.28,18.61-7.14L280.87,387.66L280.87,387.66z"/>
<path class="st0" d="M310.53,409.1c1.1,2.39-3.12,2.95-2.58,5.04c2.01,2.68,4.53,4.96,5.85,7.87c-1.13,1.34-2.65,2.19-4.02,3.01
	c-2.19-2.64-4.22-5.5-6.9-7.58c-1.21,0.45-2.12,2.31-3.46,1.19c-0.45-1.21-2.83-1.89-1.91-3.57c2.72-3.45,6.87-4.88,9.4-8.49
	C308.65,405.89,309.55,408.13,310.53,409.1L310.53,409.1z"/>
<path class="st2" d="M281.71,411.45c0.12,1.4-0.86,2.4-1.47,3.51c-0.63-1.01-2.47-1.75-2.04-3.03
	C278.98,410.8,281.04,409.91,281.71,411.45L281.71,411.45z"/>
<path class="st2" d="M291.57,414.32c-1.99-0.35-4.18-1.05-5.86-1.98c0.21-1.61,2.6-0.75,3.55-2.08
	C290.72,410.67,290.92,412.96,291.57,414.32L291.57,414.32z"/>
<path class="st2" d="M271.47,420.54c0.46,1.21-0.9,2.04-1.54,2.81c-1.04,0.27-1.33-0.95-1.91-1.42c-0.06-0.72,0.96-1.34,1.63-1.75
	C270.34,419.92,270.89,420.05,271.47,420.54L271.47,420.54z"/>
<path class="st0" d="M295.83,418.05c3.53,3.79,8.03,6.42,10.02,10.88c-2.63,4.51-7.4,0.82-10.79,0.77c0.2,2.29,4.53,2.97,3.86,5.53
	c-1.18,0.82-1.56,2.45-2.99,2.4c-2.79-3.31-6.43-6.38-9.54-9.32c0.01-1.95,1.89-2.84,2.82-4.34c2.13-0.19,4.39,1.22,6.11,0.54
	c-1.21-1.51-3.79-2.53-2.77-5.11C293.57,418.78,294.38,417.82,295.83,418.05L295.83,418.05z"/>
<path class="st1" d="M430.74,423.52c6.5,7.09,14.53,11.38,22.5,14.96l0.04,0.35c-3.41,1.9-6.09,5.87-6.3,9.44
	c0.79,0.83,1.65,0.57,2.68,0.3c1.47,6.46,3.24,12.53,5.37,18.59c-6.65,7.53-19.82,9.57-29.04,5.93l-2.12-1.78
	c-5.05-10.95-10.15-22.44-9.54-35.85c0.26-7.15,6.32-13.19,11.4-18.27C428,418.6,428.8,421.55,430.74,423.52L430.74,423.52z"/>
<path class="st0" d="M293.98,439.76c0.13,1.6-1.55,2.62-2.54,3.61c-3.92-2.16-7.28-5.96-11.43-8.62c0.03-1.6,1-2.76,1.57-4.41
	C285.87,432.46,290.31,436.52,293.98,439.76L293.98,439.76z"/>
<path class="st2" d="M264.96,437.85c0.58,0.49,1.16,0.96,1.05,1.87c-0.97,1.16-2.6,0.76-3.86,0.69c-1.48-0.59-2.2,1.26-3.18,2.24
	l0.01,0.16l-0.53,0.06c-0.32-1.58-1-3.3-0.95-4.73C259.69,438.66,262.48,437.9,264.96,437.85L264.96,437.85z"/>
<path class="st4" d="M596.31,410.64c-4.07,8.55-12.86,11.82-19.72,16.86c-0.95-2.58-0.52-5.82-1.28-8.42l-0.48-5.49
	C581.2,411.07,589.27,409.65,596.31,410.64L596.31,410.64z"/>
<path class="st0" d="M289.45,444.97c-0.03,1.6-0.76,3.44-2.11,4.45c-1.49-0.76-3.04-2.23-4.38-1.22c-0.92,1.68-3.77,3.72-1.3,5.47
	c1.67,0.74,0.76,2.59,0.52,3.86c-0.45,0.93-1.39,2.44-2.52,1.82c-3.24-4.52-6.13-9.07-9.56-13.58c0.88-2.21,2.83-4.33,3.88-6.57
	C279.42,440.32,284.92,441.99,289.45,444.97L289.45,444.97z"/>
<path class="st1" d="M572.01,414.01c0.37,6.19,0.47,13.48,2.25,19.57c0.12,1.24-1.78,1.94-0.62,3.08
	c5.08,2.94,10.03,6.61,15.55,8.79l0.04,0.35c-9.17,7.04-14.51,17.3-16.83,27.48l-0.64,0.76c-12.84-2.08-25.35-12.92-29.13-25.41
	c-1.61-6.28-2.71-12.58-3.63-19.1C549.28,422.77,560.25,417.71,572.01,414.01L572.01,414.01z"/>
<path class="st2" d="M279.6,446.36c-0.11,0.72-0.6,1.3-0.73,1.84c-1.28-0.41-2.13-1.94-2.77-3.14
	C277.34,444.96,278.32,445.93,279.6,446.36L279.6,446.36z"/>
<path class="st4" d="M536.81,432.94l0.78,8.85c-4.03,0.89-8.28,1.07-11.33-1.16c3.24-3.66,5.99-6.94,9.89-9.23L536.81,432.94
	L536.81,432.94z"/>
<path class="st2" d="M269.7,457.38c0.24,0.69-0.24,1.46-0.73,1.85c-0.88,0.08-1.31-0.78-2.07-1.24c-0.06-0.71,0.6-1.31,1.12-1.53
	C268.54,456.41,269.12,456.89,269.7,457.38L269.7,457.38z"/>
<path class="st3" d="M338.31,472.21c0.83,1.35,1.53,3.25,1.16,5.06c-4.39,10.9-15.73,15.63-25.32,20.02
	c-11.42,3.85-27.46,7.74-38.39,0.87c-1.68-0.92-1.64-2.52-2.31-4.07c3.31-10.97,14.65-15.71,23.7-20.23
	c11.37-4.21,26.19-7.99,38.13-3.7L338.31,472.21L338.31,472.21z"/>
<path class="st2" d="M606.49,447.69l0.08,0.89c-13.79,7.25-19.55,22.89-22.46,36.32c-3.39,0.11-7.47,0.11-8.88-3.68
	c-2.48-12.06,5.51-22.38,13.65-31.28c3.98-3.2,8.48-6.81,14.14-5.33C604.18,445.57,605.99,446.12,606.49,447.69L606.49,447.69z"/>
<path class="st4" d="M618.22,447.54c-16.1,11.21-19.8,30.05-20.89,47.96c-1.2,8.65,0.99,17.55,0.16,26.34
	c-1.09,1.69-2.56,3.43-4.5,3.59c-8.9-0.1-16.83-3.16-24.05-8.22l-0.08-0.89c4.85-3.63,9.46-8.13,16.19-8.54
	c1.47,0.58,0.56,4.4,3.14,3.28l0.49-0.4c-4.4-15.64-1.36-31.92,5.43-45.71c5.27-9.18,14.18-14.95,23.58-17.73L618.22,447.54
	L618.22,447.54z"/>
<path class="st0" d="M333.48,476.02c1,3.29-3.12,5.08-4.7,7.35c-12.7,9.67-28.56,15.5-45.61,13.96c-0.9-0.1-1.62-0.22-2.4-0.86
	c-1.02-5.61,4.93-8.8,8.39-11.94c11.73-6.38,24.45-11.59,39.07-11.44C330.06,473.64,331.78,474.92,333.48,476.02L333.48,476.02z"/>
<path class="st2" d="M645.28,451.41c-1.57,0.32-3.12-0.98-4.71-0.84c-11.66-1.12-20.87,5.74-25.89,15.44
	c-7.68,18.13-6.03,39-6.19,59.49c-0.02,3.91-1.46,7.78-4.83,9.86c-8.01,4.27-17.07,0.42-24.75-1.92c-5.33-1.86-10.38-4.8-15.15-8.49
	c0.16-2.15,1.61-3.87,2.68-5.74l0.72-0.07c7.82,6.08,16.74,8.33,26.24,8.93c2.64-0.23,4.6-2.36,6.17-4.81
	c1.65-3.37,0.76-7.56,0.27-11.25c-1.86-21.04,0.83-41.39,13.81-57.85c6.55-6.44,17.67-9.56,26.42-5.33
	C641.73,449.59,643.59,450.31,645.28,451.41L645.28,451.41z"/>
<path class="st4" d="M330.73,477.15c-0.69,2.2-3.01,4.18-4.85,5.59c-11.88,8.69-27.07,14.12-42.73,12.28
	c0.23-3.59,4.3-5.72,6.79-7.9C301.62,480.23,316.41,474.32,330.73,477.15L330.73,477.15z"/>
<path class="st0" d="M315.29,481.87c0.41,0.68-0.08,1.08-0.4,1.46c-6.68-1.01-12.99,2.21-16.39,8.03c-0.36,0.02-0.51,0.39-0.88,0.25
	c-0.93-0.45-0.31-1.57,0-2.13l2.66-4.16c-1.77,0.15-3.39,1.91-4.72,3.09c0.06-3.39,4.17-5.18,6.91-6.48
	C306.44,480.35,312.19,478.94,315.29,481.87L315.29,481.87z"/>
<path class="st2" d="M425.38,476.18c9.95,3.76,21.96,0.58,30.57-4.82c1.16-0.98,2.44-2.7,2.85-4.16c3.1,0.97,6.17,3.55,7.16,6.67
	c1.42,4.15-2.46,6.63-4.93,8.8c-11.44,7.59-29.23,7.71-41.28,2.36c-3.05-2.23-6.13-4.99-5.25-9.15c1.05-2.25,3.15-4.74,5.42-5.28
	C421.34,472.79,422.8,475.15,425.38,476.18L425.38,476.18z"/>
<path class="st2" d="M648.93,456.44c7.68,8.4,7.89,21.04,8.55,32.72c-0.74,9.68-0.78,19.47-4.11,28.32
	c-13.38,9.89-28.9,15.71-45.58,18.41c4.71-7.37,2.99-16.66,3.3-25.41c-1.42-16.25,0.74-32.29,7.68-46.62
	C625.46,454.75,638.8,450.56,648.93,456.44L648.93,456.44z"/>
<path class="st4" d="M411.82,479.85c8.88,14,27.49,13.09,42.5,9.46c4.98-2.04,9.95-4.25,13.48-8.65
	c10.16,8.19,16.47,19.39,18.31,32.05c-30.14,19.91-77.9,19.64-109.16,4.2c1.52-7.07,6.65-13.57,11.24-20.04
	C395.01,489.34,402.27,482.65,411.82,479.85L411.82,479.85z"/>
<path class="st2" d="M478.93,520.27c2.75-1.13,5.08-2.93,7.64-4.21c0.95,2.58-0.04,5.69,0.02,8.35
	c-31.4,19.66-80.33,20.04-111.53,1.39c-0.2-2.13,0.18-4.11,0.9-5.97C405.74,534.52,447.92,534.21,478.93,520.27L478.93,520.27z"/>
<path class="st2" d="M274.85,436.99c0-9.29,9.53-16.81,21.28-16.81c11.75,0,21.28,7.52,21.28,16.81c0,9.28-9.54,16.8-21.28,16.8
	C284.38,453.8,274.85,446.27,274.85,436.99L274.85,436.99z"/>
<path class="st2" d="M262.99,442.54c0-9.95,7.91-18.01,17.66-18.01c9.75,0,17.66,8.06,17.66,18.01c0,9.96-7.91,18.02-17.66,18.02
	C270.9,460.57,262.99,452.51,262.99,442.54L262.99,442.54z"/>
<path class="st2" d="M266.63,455.92c0-8.2,3.39-14.82,7.56-14.82c4.18,0,7.57,6.63,7.57,14.82c0,8.17-3.39,14.8-7.57,14.8
	C270.01,470.73,266.63,464.1,266.63,455.92L266.63,455.92z"/>
<path class="st2" d="M277.75,426.35c0-9.75,9.21-17.66,20.56-17.66c11.34,0,20.55,7.91,20.55,17.66c0,9.76-9.21,17.65-20.55,17.65
	C286.96,444,277.75,436.1,277.75,426.35L277.75,426.35z"/>
<polygon class="st2" points="274.93,431.68 265.64,432.99 259.86,425.59 263.38,416.88 272.67,415.57 278.45,422.97 274.93,431.68 
	"/>
<path class="st2" d="M278.36,424.42c10.22,0,18.51,5.74,18.51,12.8c0,7.08-8.29,12.82-18.51,12.82c-10.22,0-18.52-5.74-18.52-12.82
	C259.84,430.16,268.14,424.42,278.36,424.42L278.36,424.42z"/>
<path class="st2" d="M272.78,414.94c6.62,0,11.97,11.6,11.97,25.91c0,14.3-5.36,25.89-11.97,25.89c-6.61,0-11.96-11.59-11.96-25.89
	C260.81,426.55,266.17,414.94,272.78,414.94L272.78,414.94z"/>
<path class="st2" d="M267.6,406.03c3.35,0,6.05,4.22,6.05,9.43c0,5.22-2.7,9.43-6.05,9.43c-3.35,0-6.07-4.21-6.07-9.43
	C261.54,410.25,264.25,406.03,267.6,406.03L267.6,406.03z"/>
<path class="st2" d="M272.86,409.16c5.19,0,9.39,3.73,9.39,8.34c0,4.59-4.2,8.33-9.39,8.33c-5.19,0-9.39-3.74-9.39-8.33
	C263.47,412.89,267.67,409.16,272.86,409.16L272.86,409.16z"/>
<path class="st2" d="M273.02,404.33c2.21,0,4.02,2.54,4.02,5.68c0,3.13-1.81,5.66-4.02,5.66c-2.22,0-4.01-2.53-4.01-5.66
	C269.01,406.87,270.81,404.33,273.02,404.33L273.02,404.33z"/>
<path class="st2" d="M283.94,414.23c5.14,0,9.31,2.49,9.31,5.57c0,3.09-4.17,5.57-9.31,5.57c-5.15,0-9.32-2.49-9.32-5.57
	C274.62,416.72,278.79,414.23,283.94,414.23L283.94,414.23z"/>
<path class="st2" d="M284.63,414.94c0.07,0,0.12,0.83,0.12,1.84c0,1.03-0.05,1.86-0.12,1.86c-0.07,0-0.11-0.83-0.11-1.86
	C284.51,415.77,284.55,414.94,284.63,414.94L284.63,414.94z"/>
<path class="st2" d="M273.51,404.33c2.48,0,4.49,1.9,4.49,4.22c0,2.34-2.01,4.22-4.49,4.22c-2.49,0-4.5-1.88-4.5-4.22
	C269.01,406.23,271.02,404.33,273.51,404.33L273.51,404.33z"/>
<path class="st2" d="M283.46,411.57c5.68,0,10.28,0.32,10.28,0.72c0,0.4-4.6,0.73-10.28,0.73c-5.68,0-10.28-0.33-10.28-0.73
	C273.18,411.89,277.78,411.57,283.46,411.57L283.46,411.57z"/>
<path class="st2" d="M282.94,410.61c9.02,0,16.34,3.42,16.34,7.63c0,4.21-7.32,7.63-16.34,7.63c-9.03,0-16.34-3.42-16.34-7.63
	C266.6,414.02,273.91,410.61,282.94,410.61L282.94,410.61z"/>
<polygon class="st2" points="250.15,414.79 273.5,407.66 292.24,468.93 268.9,476.07 250.15,414.79 "/>
<path class="st5" d="M307.66,408.29c-1.38-0.69-2.99-0.24-4.14,0.92c1.6,1.37,6.2,1.16,5.52-0.92c-0.02-0.05-0.04-0.11-0.06-0.15
	c-0.66-1.82-3.1-2.13-5.01-1.69c-1.26,0.35-2.42,0-3.68-0.45c-1.27,0.11-2.19,0.23-3.22,0.92c1.03-0.69,1.95-0.81,3.22-0.92
	c1.26,0.45,2.42,0.8,3.68,0.45c1.91-0.43,4.35-0.12,5.01,1.69c0.02,0.04,0.04,0.1,0.06,0.15c0.68,2.07-3.92,2.29-5.52,0.92
	C304.66,408.05,306.27,407.59,307.66,408.29L307.66,408.29z"/>
<path class="st5" d="M309.22,412.13c0.72-0.92,1.1-1.5,1.5-2.57c-0.88,0.67-1.25,1.25-2.03,2.03c0.47-1.26,1.26-1.73,1.9-2.86
	c-0.64,1.13-1.42,1.6-1.9,2.86c0.78-0.78,1.16-1.36,2.03-2.03C310.32,410.63,309.95,411.21,309.22,412.13L309.22,412.13z"/>
<path class="st5" d="M302.3,407.51l-3.26,0.95c1.19-0.37,1.97-0.61,2.86-1.5c-1.16-0.21-1.78,0.41-2.86,0.82
	c1.32-0.99,1.97-1.86,2.58-3.41l-3.53,2.46c1.56-1.32,2.51-2.31,2.85-4.36l-3.26,2.99l2.99-4.89l-3.66,4.48l3.66-4.48l-2.99,4.89
	l3.26-2.99c-0.34,2.04-1.29,3.03-2.85,4.36l3.53-2.46c-0.61,1.55-1.26,2.42-2.58,3.41c1.08-0.4,1.7-1.02,2.86-0.82
	c-0.89,0.89-1.67,1.13-2.86,1.5L302.3,407.51L302.3,407.51z"/>
<polygon class="st5" points="302.16,402.89 304.33,406 303.53,405.2 304.33,406 302.16,402.89 "/>
<path class="st5" d="M305.83,403.84c1.57-1.02,2.59-1.67,3.26-3.4l-3.12,2.59c0.81-1.64,2.03-2.04,2.58-3.68l-4.08,3.26l4.08-3.26
	c-0.55,1.63-1.78,2.03-2.58,3.68l3.12-2.59C308.42,402.16,307.4,402.82,305.83,403.84L305.83,403.84z"/>
<path class="st5" d="M308.01,400.16l-4.35,1.36l3.94-2.31c-1.91,0.95-2.86,1.94-4.89,2.46l3.93-1.78c-1.38,0-2.14,0.61-3.53,0.83
	c1.39-0.22,2.15-0.83,3.53-0.83l-3.93,1.78c2.03-0.52,2.98-1.51,4.89-2.46l-3.94,2.31L308.01,400.16L308.01,400.16z"/>
<path class="st5" d="M308.14,398.94c-1.16-0.16-2-0.16-2.98,0.41c0.58-0.21,0.88-0.44,1.49-0.54c0.05-0.02,0.07,0,0.07,0
	c0.02,0.04-0.55,0.31-0.74,0.39c-0.21,0.1-0.34,0.21-0.55,0.28c-0.41,0.16-0.78,0.28-1.23,0.4c0.44-0.12,0.82-0.24,1.23-0.4
	c0.21-0.07,0.34-0.18,0.55-0.28c0.2-0.08,0.76-0.35,0.74-0.39c0,0-0.02-0.02-0.07,0c-0.61,0.09-0.91,0.33-1.49,0.54
	C306.14,398.78,306.98,398.78,308.14,398.94L308.14,398.94z"/>
<path class="st5" d="M305.29,401.67c-0.92-0.14-1.5-0.21-2.31-0.56c-0.23-0.06-0.66-0.13-0.71-0.29c-0.02-0.03-0.01-0.06,0.03-0.1
	c0.41-0.47,1.08-0.4,1.5-0.56c-0.58-0.33-1.08-0.3-1.77-0.27c0.68-0.03,1.19-0.06,1.77,0.27c-0.41,0.15-1.08,0.08-1.5,0.56
	c-0.04,0.04-0.05,0.07-0.03,0.1c0.05,0.15,0.49,0.23,0.71,0.29C303.8,401.46,304.37,401.53,305.29,401.67L305.29,401.67z"/>
<path class="st5" d="M299.85,404.11c-3.9,1.3-4.92,3.98-7.89,6.94c3.2-0.51,4.52-2.83,5.71-5.84l-8.63,6.79l8.63-6.79
	c-1.19,3.01-2.51,5.34-5.71,5.84C294.93,408.09,295.95,405.41,299.85,404.11L299.85,404.11z"/>
<path class="st5" d="M276.12,411.45c3.2,2.7,4.79,4.35,8.7,5.92l-8.7-9.18c0.06,0.25,0.13,0.48,0.21,0.7c0.76,2.07,2.32,3,4.42,4.05
	c1.93,0.95,2.98,1.63,5.03,2.46c-2.04-0.83-3.1-1.51-5.03-2.46c-2.1-1.04-3.65-1.97-4.42-4.05c-0.07-0.23-0.14-0.45-0.21-0.7
	l8.7,9.18C280.91,415.8,279.32,414.16,276.12,411.45L276.12,411.45z"/>
<path class="st5" d="M276.94,407.91c3.23,5.4,8.53,5.61,14.74,6.12C285.46,413.52,280.17,413.31,276.94,407.91L276.94,407.91z"/>
<path class="st5" d="M279.11,410.9c2.61,1.57,4.79,1.51,7.74,0.96c2.38-0.44,3.71-0.96,5.91-2.03c1.02-0.52,1.19-1.5,2.31-1.77
	c-1.13,0.28-1.29,1.26-2.31,1.77c-2.21,1.07-3.53,1.59-5.91,2.03C283.9,412.4,281.73,412.47,279.11,410.9L279.11,410.9z"/>
<path class="st5" d="M275.44,409.14c4.35,2.89,7.99,3.26,12.91,1.9c3.13-0.85,4.89-1.63,7.41-3.66c1.05-0.86,1.02-2.04,2.18-2.71
	c-1.16,0.67-1.13,1.86-2.18,2.71c-2.52,2.03-4.28,2.82-7.41,3.66C283.43,412.4,279.79,412.03,275.44,409.14L275.44,409.14z"/>
<path class="st5" d="M274.49,397.05c-0.7,3.55-0.81,6.75,0.22,9.58c0.66,1.83,1.81,3.49,3.59,4.96c-1.79-1.48-2.93-3.14-3.59-4.96
	C273.68,403.8,273.79,400.6,274.49,397.05L274.49,397.05z"/>
<path class="st5" d="M274.76,396.63c-0.78,3.68-0.43,6.13,0.83,9.58c0.04,0.11,0.08,0.23,0.13,0.34c0.09,0.28,0.19,0.54,0.28,0.79
	c0.68,1.86,1.29,3.3,3.12,4.38c-1.83-1.07-2.44-2.52-3.12-4.38c-0.09-0.26-0.19-0.52-0.28-0.79c-0.05-0.11-0.09-0.23-0.13-0.34
	C274.33,402.76,273.97,400.32,274.76,396.63L274.76,396.63z"/>
<path class="st5" d="M298.9,401.26c0,5.2-0.74,8.12-2.71,13.05C298.16,409.38,298.9,406.46,298.9,401.26L298.9,401.26z"/>
<polygon class="st5" points="298.63,400.03 295.51,410.09 298.63,400.03 "/>
<polygon class="st5" points="298.09,400.57 289.86,415.73 298.09,400.57 "/>
<path class="st5" d="M299.99,400.16c2.15,1.53,3.91,1.94,6.52,1.78C303.9,402.1,302.13,401.69,299.99,400.16L299.99,400.16z"/>
<path class="st5" d="M299.85,399.36c1.47,0.71,2.45,0.95,4.08,0.95C302.3,400.31,301.32,400.07,299.85,399.36L299.85,399.36z"/>
<path class="st5" d="M300.53,399.21c2.07,1.03,3.77,0.86,5.84,0C304.3,400.07,302.61,400.25,300.53,399.21L300.53,399.21z"/>
</svg>
